<svg width="83" height="34" viewBox="0 0 83 34" fill="none" xmlns="http://www.w3.org/2000/svg">
<path fill-rule="evenodd" clip-rule="evenodd" d="M45.2352 0.680905C44.6435 0.252497 43.9162 0 43.1301 0C41.8633 0 40.6902 0.666996 40.0423 1.75554L36.3689 7.92746C35.5879 9.23965 33.6918 9.25083 32.8954 7.94794L29.0914 1.72467C28.4365 0.653362 27.2714 0 26.0158 0C24.025 0 22.4111 1.61386 22.4111 3.60465V17.1825C22.4111 18.9042 23.8069 20.3 25.5286 20.3C27.2504 20.3 28.6461 18.9043 28.6461 17.1825V14.0911C28.6461 13.31 29.67 13.0182 30.0817 13.682L32.2682 17.2062C32.7569 17.9939 33.618 18.473 34.545 18.473C35.4905 18.473 36.3661 17.9746 36.8488 17.1616L39.0064 13.5278C39.4208 12.8298 40.4911 13.12 40.4962 13.9317L40.5167 17.1968C40.5274 18.9138 41.9224 20.3 43.6394 20.3C44.0997 20.3 44.5366 20.2004 44.9299 20.0217C42.5011 17.5806 41 14.2156 41 10.5C41 6.63109 42.6275 3.1423 45.2352 0.680905Z" fill="white"/>
<path fill-rule="evenodd" clip-rule="evenodd" d="M64.0488 20.043C66.4901 17.6002 67.9999 14.2264 67.9999 10.5C67.9999 6.60786 66.3528 3.10041 63.7177 0.636675C64.3242 0.234345 65.0519 0 65.8343 0C66.9698 0 68.0469 0.503265 68.7755 1.37422L73.2384 6.70962C73.9514 7.562 75.3399 7.05781 75.3399 5.94655V3.335C75.3399 1.49313 76.8331 0 78.6749 0C80.5168 0 82.0099 1.49313 82.0099 3.335V16.4656C82.0099 18.5833 80.2932 20.3 78.1756 20.3C77.0401 20.3 75.963 19.7967 75.2344 18.9258L70.7715 13.5904C70.0585 12.738 68.6699 13.2422 68.6699 14.3534V16.965C68.6699 18.8069 67.1768 20.3 65.3349 20.3C64.8791 20.3 64.4446 20.2085 64.0488 20.043Z" fill="white"/>
<path fill-rule="evenodd" clip-rule="evenodd" d="M44.3148 10.5C44.3148 16.1251 48.8749 20.6852 54.5 20.6852C60.1251 20.6852 64.6852 16.1251 64.6852 10.5C64.6852 4.87488 60.1251 0.314819 54.5 0.314819C48.8749 0.314819 44.3148 4.87488 44.3148 10.5ZM58.2205 17.6267C58.2205 17.8357 58.3899 18.0051 58.5989 18.0051C58.8079 18.0051 58.9773 17.8357 58.9773 17.6267C58.9773 17.4177 58.8079 17.2483 58.5989 17.2483C58.3899 17.2483 58.2205 17.4177 58.2205 17.6267ZM60.9864 14.743C60.7122 14.743 60.4898 14.5206 60.4898 14.2464C60.4898 13.9721 60.7122 13.7498 60.9864 13.7498C61.2607 13.7498 61.483 13.9721 61.483 14.2464C61.483 14.5206 61.2607 14.743 60.9864 14.743ZM56.9439 15.7593C56.9439 16.0858 57.2086 16.3505 57.5351 16.3505C57.8616 16.3505 58.1263 16.0858 58.1263 15.7593C58.1263 15.4328 57.8616 15.1681 57.5351 15.1681C57.2086 15.1681 56.9439 15.4328 56.9439 15.7593ZM54.5093 18.4779C54.2351 18.4779 54.0128 18.2556 54.0128 17.9813C54.0128 17.7071 54.2351 17.4847 54.5093 17.4847C54.7836 17.4847 55.0059 17.7071 55.0059 17.9813C55.0059 18.2556 54.7836 18.4779 54.5093 18.4779ZM49.947 17.6267C49.947 17.8357 50.1163 18.0051 50.3253 18.0051C50.5343 18.0051 50.7037 17.8357 50.7037 17.6267C50.7037 17.4177 50.5343 17.2483 50.3253 17.2483C50.1163 17.2483 49.947 17.4177 49.947 17.6267ZM47.9853 14.743C48.2596 14.743 48.4819 14.5206 48.4819 14.2464C48.4819 13.9721 48.2596 13.7498 47.9853 13.7498C47.7111 13.7498 47.4888 13.9721 47.4888 14.2464C47.4888 14.5206 47.7111 14.743 47.9853 14.743ZM52.0279 15.7593C52.0279 16.0858 51.7632 16.3505 51.4367 16.3505C51.1102 16.3505 50.8455 16.0858 50.8455 15.7593C50.8455 15.4328 51.1102 15.1681 51.4367 15.1681C51.7632 15.1681 52.0279 15.4328 52.0279 15.7593ZM54.5093 15.8778C54.1305 15.8778 53.8235 15.5707 53.8235 15.192C53.8235 14.8133 54.1305 14.5062 54.5093 14.5062C54.888 14.5062 55.1951 14.8133 55.1951 15.192C55.1951 15.5707 54.888 15.8778 54.5093 15.8778ZM57.8893 12.8518C57.8893 13.2436 58.207 13.5612 58.5988 13.5612C58.9906 13.5612 59.3082 13.2436 59.3082 12.8518C59.3082 12.46 58.9906 12.1424 58.5988 12.1424C58.207 12.1424 57.8893 12.46 57.8893 12.8518ZM50.3252 13.5612C49.9334 13.5612 49.6158 13.2436 49.6158 12.8518C49.6158 12.46 49.9334 12.1424 50.3252 12.1424C50.717 12.1424 51.0346 12.46 51.0346 12.8518C51.0346 13.2436 50.717 13.5612 50.3252 13.5612ZM54.675 12.8514C54.675 13.5042 55.2042 14.0334 55.8569 14.0334C56.5097 14.0334 57.0389 13.5042 57.0389 12.8514C57.0389 12.1987 56.5097 11.6695 55.8569 11.6695C55.2042 11.6695 54.675 12.1987 54.675 12.8514ZM53.1148 14.0334C52.4621 14.0334 51.9329 13.5042 51.9329 12.8514C51.9329 12.1987 52.4621 11.6695 53.1148 11.6695C53.7676 11.6695 54.2968 12.1987 54.2968 12.8514C54.2968 13.5042 53.7676 14.0334 53.1148 14.0334ZM58.2205 3.34855C58.2205 3.13959 58.3899 2.97019 58.5989 2.97019C58.8079 2.97019 58.9773 3.13959 58.9773 3.34855C58.9773 3.55751 58.8079 3.72691 58.5989 3.72691C58.3899 3.72691 58.2205 3.55751 58.2205 3.34855ZM60.9864 6.23228C60.7122 6.23228 60.4898 6.45461 60.4898 6.72887C60.4898 7.00313 60.7122 7.22546 60.9864 7.22546C61.2607 7.22546 61.483 7.00313 61.483 6.72887C61.483 6.45461 61.2607 6.23228 60.9864 6.23228ZM56.9439 5.21601C56.9439 4.8895 57.2086 4.62482 57.5351 4.62482C57.8616 4.62482 58.1263 4.8895 58.1263 5.21601C58.1263 5.54251 57.8616 5.80719 57.5351 5.80719C57.2086 5.80719 56.9439 5.54251 56.9439 5.21601ZM54.5093 2.49738C54.2351 2.49738 54.0128 2.71971 54.0128 2.99397C54.0128 3.26823 54.2351 3.49056 54.5093 3.49056C54.7836 3.49056 55.0059 3.26823 55.0059 2.99397C55.0059 2.71971 54.7836 2.49738 54.5093 2.49738ZM49.947 3.34855C49.947 3.13959 50.1163 2.97019 50.3253 2.97019C50.5343 2.97019 50.7037 3.13959 50.7037 3.34855C50.7037 3.55751 50.5343 3.72691 50.3253 3.72691C50.1163 3.72691 49.947 3.55751 49.947 3.34855ZM47.9853 6.23228C48.2596 6.23228 48.4819 6.45461 48.4819 6.72887C48.4819 7.00313 48.2596 7.22546 47.9853 7.22546C47.7111 7.22546 47.4888 7.00313 47.4888 6.72887C47.4888 6.45461 47.7111 6.23228 47.9853 6.23228ZM52.0279 5.21601C52.0279 4.8895 51.7632 4.62482 51.4367 4.62482C51.1102 4.62482 50.8455 4.8895 50.8455 5.21601C50.8455 5.54251 51.1102 5.80719 51.4367 5.80719C51.7632 5.80719 52.0279 5.54251 52.0279 5.21601ZM54.5093 5.09748C54.1305 5.09748 53.8235 5.40451 53.8235 5.78325C53.8235 6.16199 54.1305 6.46902 54.5093 6.46902C54.888 6.46902 55.1951 6.16199 55.1951 5.78325C55.1951 5.40451 54.888 5.09748 54.5093 5.09748ZM57.8893 8.12347C57.8893 7.73167 58.207 7.41405 58.5988 7.41405C58.9906 7.41405 59.3082 7.73167 59.3082 8.12347C59.3082 8.51528 58.9906 8.83289 58.5988 8.83289C58.207 8.83289 57.8893 8.51528 57.8893 8.12347ZM50.3252 7.41405C49.9334 7.41405 49.6158 7.73167 49.6158 8.12347C49.6158 8.51528 49.9334 8.83289 50.3252 8.83289C50.717 8.83289 51.0346 8.51528 51.0346 8.12347C51.0346 7.73167 50.717 7.41405 50.3252 7.41405ZM54.675 8.12369C54.675 7.47092 55.2042 6.94175 55.8569 6.94175C56.5097 6.94175 57.0389 7.47092 57.0389 8.12369C57.0389 8.77646 56.5097 9.30563 55.8569 9.30563C55.2042 9.30563 54.675 8.77646 54.675 8.12369ZM53.1148 6.94175C52.4621 6.94175 51.9329 7.47092 51.9329 8.12369C51.9329 8.77646 52.4621 9.30563 53.1148 9.30563C53.7676 9.30563 54.2968 8.77646 54.2968 8.12369C54.2968 7.47092 53.7676 6.94175 53.1148 6.94175ZM56.046 10.4876C56.046 9.83479 56.5752 9.30562 57.228 9.30562C57.8807 9.30562 58.4099 9.83479 58.4099 10.4876C58.4099 11.1403 57.8807 11.6695 57.228 11.6695C56.5752 11.6695 56.046 11.1403 56.046 10.4876ZM51.7437 9.30562C51.091 9.30562 50.5618 9.83479 50.5618 10.4876C50.5618 11.1403 51.091 11.6695 51.7437 11.6695C52.3965 11.6695 52.9257 11.1403 52.9257 10.4876C52.9257 9.83479 52.3965 9.30562 51.7437 9.30562ZM62.381 10.4878C62.381 10.6967 62.5504 10.8661 62.7594 10.8661C62.9683 10.8661 63.1377 10.6967 63.1377 10.4878C63.1377 10.2788 62.9683 10.1094 62.7594 10.1094C62.5504 10.1094 62.381 10.2788 62.381 10.4878ZM60.5609 11.1026C60.2344 11.1026 59.9697 10.838 59.9697 10.5115C59.9697 10.185 60.2344 9.92028 60.5609 9.92028C60.8874 9.92028 61.1521 10.185 61.1521 10.5115C61.1521 10.838 60.8874 11.1026 60.5609 11.1026ZM46.5908 10.4878C46.5908 10.6967 46.4214 10.8661 46.2124 10.8661C46.0034 10.8661 45.834 10.6967 45.834 10.4878C45.834 10.2788 46.0034 10.1094 46.2124 10.1094C46.4214 10.1094 46.5908 10.2788 46.5908 10.4878ZM48.4109 11.1026C48.7374 11.1026 49.0021 10.838 49.0021 10.5115C49.0021 10.185 48.7374 9.92028 48.4109 9.92028C48.0844 9.92028 47.8197 10.185 47.8197 10.5115C47.8197 10.838 48.0844 11.1026 48.4109 11.1026Z" fill="#FEF000"/>
<path d="M21.024 32.064C22.312 32.064 23.056 31.496 23.056 30.696C23.056 29 20.456 29.712 20.456 28.976C20.456 28.752 20.696 28.576 21.256 28.576C21.648 28.576 22.072 28.656 22.496 28.896L22.912 28.008C22.504 27.768 21.848 27.632 21.256 27.632C20 27.632 19.264 28.208 19.264 29.024C19.264 30.744 21.864 30.024 21.864 30.728C21.864 30.968 21.648 31.12 21.072 31.12C20.544 31.12 19.96 30.952 19.576 30.704L19.16 31.6C19.56 31.864 20.296 32.064 21.024 32.064ZM26.266 30.912C26.13 31.016 25.946 31.072 25.762 31.072C25.426 31.072 25.226 30.872 25.226 30.504V28.752H26.298V27.792H25.226V26.744H23.978V27.792H23.314V28.752H23.978V30.52C23.978 31.544 24.57 32.064 25.586 32.064C25.97 32.064 26.346 31.976 26.602 31.792L26.266 30.912ZM29.0386 27.632C28.3506 27.632 27.6546 27.816 27.1826 28.152L27.6306 29.024C27.9426 28.776 28.4146 28.624 28.8706 28.624C29.5426 28.624 29.8626 28.936 29.8626 29.472H28.8706C27.5586 29.472 27.0226 30 27.0226 30.76C27.0226 31.504 27.6226 32.064 28.6306 32.064C29.2626 32.064 29.7106 31.856 29.9426 31.464V32H31.1106V29.544C31.1106 28.24 30.3506 27.632 29.0386 27.632ZM28.9426 31.224C28.5026 31.224 28.2386 31.016 28.2386 30.704C28.2386 30.416 28.4226 30.2 29.0066 30.2H29.8626V30.64C29.7186 31.032 29.3586 31.224 28.9426 31.224ZM35.4481 32H36.9601L35.0081 29.52L36.8001 27.696H35.3121L33.4881 29.424V26.064H32.2401V32H33.4881V30.904L34.0881 30.312L35.4481 32ZM41.5498 29.864C41.5498 28.48 40.5738 27.632 39.3098 27.632C37.9978 27.632 37.0138 28.56 37.0138 29.848C37.0138 31.128 37.9818 32.064 39.4698 32.064C40.2458 32.064 40.8458 31.824 41.2458 31.368L40.5818 30.648C40.2858 30.928 39.9578 31.064 39.5018 31.064C38.8458 31.064 38.3898 30.736 38.2698 30.2H41.5258C41.5338 30.096 41.5498 29.96 41.5498 29.864ZM39.3178 28.576C39.8778 28.576 40.2858 28.928 40.3738 29.472H38.2538C38.3418 28.92 38.7498 28.576 39.3178 28.576ZM47.1903 27.632C46.6143 27.632 46.1503 27.816 45.8383 28.192V27.696H44.6463V33.552H45.8943V31.544C46.2143 31.896 46.6543 32.064 47.1903 32.064C48.3983 32.064 49.3343 31.2 49.3343 29.848C49.3343 28.496 48.3983 27.632 47.1903 27.632ZM46.9743 31.04C46.3503 31.04 45.8783 30.592 45.8783 29.848C45.8783 29.104 46.3503 28.656 46.9743 28.656C47.5983 28.656 48.0703 29.104 48.0703 29.848C48.0703 30.592 47.5983 31.04 46.9743 31.04ZM52.2178 32.064C53.5858 32.064 54.5778 31.144 54.5778 29.848C54.5778 28.552 53.5858 27.632 52.2178 27.632C50.8498 27.632 49.8498 28.552 49.8498 29.848C49.8498 31.144 50.8498 32.064 52.2178 32.064ZM52.2178 31.04C51.5938 31.04 51.1138 30.592 51.1138 29.848C51.1138 29.104 51.5938 28.656 52.2178 28.656C52.8418 28.656 53.3138 29.104 53.3138 29.848C53.3138 30.592 52.8418 31.04 52.2178 31.04ZM57.4599 32.064C58.8279 32.064 59.8199 31.144 59.8199 29.848C59.8199 28.552 58.8279 27.632 57.4599 27.632C56.0919 27.632 55.0919 28.552 55.0919 29.848C55.0919 31.144 56.0919 32.064 57.4599 32.064ZM57.4599 31.04C56.8359 31.04 56.3559 30.592 56.3559 29.848C56.3559 29.104 56.8359 28.656 57.4599 28.656C58.0839 28.656 58.5559 29.104 58.5559 29.848C58.5559 30.592 58.0839 31.04 57.4599 31.04ZM60.6541 32H61.9021V26.064H60.6541V32Z" fill="white"/>
<line x1="0.5" y1="29.5" x2="14.5" y2="29.5" stroke="white" stroke-linecap="round" stroke-linejoin="bevel"/>
<line x1="0.5" y1="29.5" x2="14.5" y2="29.5" stroke="white" stroke-linecap="round" stroke-linejoin="bevel"/>
<line x1="0.5" y1="29.5" x2="14.5" y2="29.5" stroke="white" stroke-linecap="round" stroke-linejoin="bevel"/>
<line x1="0.5" y1="29.5" x2="14.5" y2="29.5" stroke="white" stroke-linecap="round" stroke-linejoin="bevel"/>
<line x1="66.5" y1="29.5" x2="80.5" y2="29.5" stroke="white" stroke-linecap="round" stroke-linejoin="bevel"/>
<line x1="66.5" y1="29.5" x2="80.5" y2="29.5" stroke="white" stroke-linecap="round" stroke-linejoin="bevel"/>
<line x1="66.5" y1="29.5" x2="80.5" y2="29.5" stroke="white" stroke-linecap="round" stroke-linejoin="bevel"/>
<line x1="66.5" y1="29.5" x2="80.5" y2="29.5" stroke="white" stroke-linecap="round" stroke-linejoin="bevel"/>
<rect x="14.3" width="6" height="20.3" rx="3" fill="white"/>
<rect width="6" height="20.3" rx="3" fill="white"/>
<rect x="0.300049" y="20.35" width="6" height="12" rx="3" transform="rotate(-90 0.300049 20.35)" fill="white"/>
</svg>
