<?xml version="1.0" encoding="utf-8"?>
<!-- Generator: Adobe Illustrator 24.1.2, SVG Export Plug-In . SVG Version: 6.00 Build 0)  -->
<svg version="1.1" id="Layer_1" xmlns="http://www.w3.org/2000/svg" xmlns:xlink="http://www.w3.org/1999/xlink" x="0px" y="0px"
	 viewBox="0 0 84.3 34.5" style="enable-background:new 0 0 84.3 34.5;" xml:space="preserve">
<style type="text/css">
	.st0{fill-rule:evenodd;clip-rule:evenodd;fill:#FFFFFF;}
	.st1{fill:#FFFFFF;}
	.st2{fill-rule:evenodd;clip-rule:evenodd;fill:#FEF000;}
	.st3{fill:none;stroke:#FFFFFF;stroke-linecap:round;stroke-linejoin:bevel;}
</style>
<rect width="84.3" height="34.5"/>
<path class="st0" d="M46.8,1.2c-0.6-0.4-1.3-0.7-2.1-0.7c-1.3,0-2.4,0.7-3.1,1.8l-3.7,6.2c-0.8,1.3-2.7,1.3-3.5,0l-3.8-6.2
	c-0.7-1.1-1.8-1.7-3.1-1.7c-2,0-3.6,1.6-3.6,3.6v13.6c0,1.7,1.4,3.1,3.1,3.1c1.7,0,3.1-1.4,3.1-3.1v-3.1c0-0.8,1-1.1,1.4-0.4
	l2.2,3.5c0.5,0.8,1.3,1.3,2.3,1.3c0.9,0,1.8-0.5,2.3-1.3l2.2-3.6c0.4-0.7,1.5-0.4,1.5,0.4l0,3.3c0,1.7,1.4,3.1,3.1,3.1
	c0.5,0,0.9-0.1,1.3-0.3c-2.4-2.4-3.9-5.8-3.9-9.5C42.5,7.2,44.2,3.7,46.8,1.2z"/>
<path class="st1" d="M0.5,4c0-1.9,1.5-3.4,3.4-3.4S7.4,2.1,7.4,4v9.7c0,1,0.8,1.8,1.8,1.8h4.7c1.5,0,2.7,1.2,2.7,2.7v2.6
	c0,0,0,0,0,0H4.6c-2.2,0-4.1-1.8-4.1-4.1V4z"/>
<path class="st1" d="M25.5,15.7c1,0,1.9,0.8,1.9,1.9v2.9c0,0.2-0.2,0.4-0.4,0.4l0,0H19h-4.4c-2.2,0-4.1-1.8-4.1-4.1V5
	c0-2.5,2-4.5,4.5-4.5l12.1,0c2.1,0,3.3,2.3,2.1,4l0,0c-0.5,0.7-1.3,1.1-2.1,1.1l-8.7,0c-0.7,0-1.2,0.5-1.2,1.2l0,0
	c0,0.7,0.5,1.2,1.2,1.2h1.6c1.4,0,2.5,1.1,2.5,2.5l0,0c0,1.4-1.1,2.5-2.5,2.5h-1.5c-0.7,0-1.3,0.6-1.3,1.3l0,0
	c0,0.7,0.6,1.3,1.3,1.3H25.5L25.5,15.7z"/>
<path class="st0" d="M65.6,20.6c2.4-2.4,4-5.8,4-9.5c0-3.9-1.6-7.4-4.3-9.9c0.6-0.4,1.3-0.6,2.1-0.6c1.1,0,2.2,0.5,2.9,1.4l4.5,5.3
	c0.7,0.9,2.1,0.3,2.1-0.8V3.9c0-1.8,1.5-3.3,3.3-3.3c1.8,0,3.3,1.5,3.3,3.3V17c0,2.1-1.7,3.8-3.8,3.8c-1.1,0-2.2-0.5-2.9-1.4
	l-4.5-5.3c-0.7-0.9-2.1-0.3-2.1,0.8v2.6c0,1.8-1.5,3.3-3.3,3.3C66.4,20.8,66,20.7,65.6,20.6z"/>
<path class="st2" d="M45.8,11c0,5.6,4.6,10.2,10.2,10.2S66.2,16.7,66.2,11c0-5.6-4.6-10.2-10.2-10.2S45.8,5.4,45.8,11z M59.7,18.2
	c0,0.2,0.2,0.4,0.4,0.4s0.4-0.2,0.4-0.4s-0.2-0.4-0.4-0.4S59.7,18,59.7,18.2z M62.5,15.3c-0.3,0-0.5-0.2-0.5-0.5
	c0-0.3,0.2-0.5,0.5-0.5c0.3,0,0.5,0.2,0.5,0.5C63,15.1,62.8,15.3,62.5,15.3z M58.5,16.3c0,0.3,0.3,0.6,0.6,0.6s0.6-0.3,0.6-0.6
	c0-0.3-0.3-0.6-0.6-0.6S58.5,16,58.5,16.3z M56,19c-0.3,0-0.5-0.2-0.5-0.5c0-0.3,0.2-0.5,0.5-0.5c0.3,0,0.5,0.2,0.5,0.5
	C56.5,18.8,56.3,19,56,19z M51.5,18.2c0,0.2,0.2,0.4,0.4,0.4c0.2,0,0.4-0.2,0.4-0.4s-0.2-0.4-0.4-0.4C51.6,17.8,51.5,18,51.5,18.2z
	 M49.5,15.3c0.3,0,0.5-0.2,0.5-0.5c0-0.3-0.2-0.5-0.5-0.5c-0.3,0-0.5,0.2-0.5,0.5C49,15.1,49.2,15.3,49.5,15.3z M53.6,16.3
	c0,0.3-0.3,0.6-0.6,0.6s-0.6-0.3-0.6-0.6c0-0.3,0.3-0.6,0.6-0.6S53.6,16,53.6,16.3z M56,16.4c-0.4,0-0.7-0.3-0.7-0.7
	c0-0.4,0.3-0.7,0.7-0.7c0.4,0,0.7,0.3,0.7,0.7C56.7,16.1,56.4,16.4,56,16.4z M59.4,13.4c0,0.4,0.3,0.7,0.7,0.7s0.7-0.3,0.7-0.7
	s-0.3-0.7-0.7-0.7S59.4,13,59.4,13.4z M51.9,14.1c-0.4,0-0.7-0.3-0.7-0.7s0.3-0.7,0.7-0.7s0.7,0.3,0.7,0.7S52.2,14.1,51.9,14.1z
	 M56.2,13.4c0,0.7,0.5,1.2,1.2,1.2c0.7,0,1.2-0.5,1.2-1.2c0-0.7-0.5-1.2-1.2-1.2C56.7,12.2,56.2,12.7,56.2,13.4z M54.6,14.6
	c-0.7,0-1.2-0.5-1.2-1.2c0-0.7,0.5-1.2,1.2-1.2c0.7,0,1.2,0.5,1.2,1.2C55.8,14,55.3,14.6,54.6,14.6z M59.7,3.9
	c0-0.2,0.2-0.4,0.4-0.4s0.4,0.2,0.4,0.4c0,0.2-0.2,0.4-0.4,0.4S59.7,4.1,59.7,3.9z M62.5,6.8C62.2,6.8,62,7,62,7.3s0.2,0.5,0.5,0.5
	c0.3,0,0.5-0.2,0.5-0.5S62.8,6.8,62.5,6.8z M58.5,5.7c0-0.3,0.3-0.6,0.6-0.6s0.6,0.3,0.6,0.6c0,0.3-0.3,0.6-0.6,0.6
	S58.5,6.1,58.5,5.7z M56,3c-0.3,0-0.5,0.2-0.5,0.5S55.8,4,56,4c0.3,0,0.5-0.2,0.5-0.5S56.3,3,56,3z M51.5,3.9c0-0.2,0.2-0.4,0.4-0.4
	c0.2,0,0.4,0.2,0.4,0.4c0,0.2-0.2,0.4-0.4,0.4C51.6,4.3,51.5,4.1,51.5,3.9z M49.5,6.8C49.8,6.8,50,7,50,7.3s-0.2,0.5-0.5,0.5
	c-0.3,0-0.5-0.2-0.5-0.5S49.2,6.8,49.5,6.8z M53.6,5.7c0-0.3-0.3-0.6-0.6-0.6s-0.6,0.3-0.6,0.6c0,0.3,0.3,0.6,0.6,0.6
	S53.6,6.1,53.6,5.7z M56,5.6c-0.4,0-0.7,0.3-0.7,0.7C55.3,6.7,55.7,7,56,7c0.4,0,0.7-0.3,0.7-0.7C56.7,5.9,56.4,5.6,56,5.6z
	 M59.4,8.7c0-0.4,0.3-0.7,0.7-0.7s0.7,0.3,0.7,0.7c0,0.4-0.3,0.7-0.7,0.7S59.4,9,59.4,8.7z M51.9,7.9c-0.4,0-0.7,0.3-0.7,0.7
	c0,0.4,0.3,0.7,0.7,0.7s0.7-0.3,0.7-0.7C52.6,8.3,52.2,7.9,51.9,7.9z M56.2,8.7c0-0.7,0.5-1.2,1.2-1.2c0.7,0,1.2,0.5,1.2,1.2
	S58,9.8,57.4,9.8C56.7,9.8,56.2,9.3,56.2,8.7z M54.6,7.5c-0.7,0-1.2,0.5-1.2,1.2s0.5,1.2,1.2,1.2c0.7,0,1.2-0.5,1.2-1.2
	S55.3,7.5,54.6,7.5z M57.6,11c0-0.7,0.5-1.2,1.2-1.2c0.7,0,1.2,0.5,1.2,1.2c0,0.7-0.5,1.2-1.2,1.2C58.1,12.2,57.6,11.7,57.6,11z
	 M53.3,9.8c-0.7,0-1.2,0.5-1.2,1.2c0,0.7,0.5,1.2,1.2,1.2c0.7,0,1.2-0.5,1.2-1.2C54.5,10.4,53.9,9.8,53.3,9.8z M63.9,11
	c0,0.2,0.2,0.4,0.4,0.4c0.2,0,0.4-0.2,0.4-0.4c0-0.2-0.2-0.4-0.4-0.4C64.1,10.6,63.9,10.8,63.9,11z M62.1,11.6
	c-0.3,0-0.6-0.3-0.6-0.6s0.3-0.6,0.6-0.6s0.6,0.3,0.6,0.6S62.4,11.6,62.1,11.6z M48.1,11c0,0.2-0.2,0.4-0.4,0.4s-0.4-0.2-0.4-0.4
	c0-0.2,0.2-0.4,0.4-0.4S48.1,10.8,48.1,11z M49.9,11.6c0.3,0,0.6-0.3,0.6-0.6s-0.3-0.6-0.6-0.6s-0.6,0.3-0.6,0.6
	S49.6,11.6,49.9,11.6z"/>
<path class="st1" d="M22.5,32.6c1.3,0,2-0.6,2-1.4c0-1.7-2.6-1-2.6-1.7c0-0.2,0.2-0.4,0.8-0.4c0.4,0,0.8,0.1,1.2,0.3l0.4-0.9
	c-0.4-0.2-1.1-0.4-1.7-0.4c-1.3,0-2,0.6-2,1.4c0,1.7,2.6,1,2.6,1.7c0,0.2-0.2,0.4-0.8,0.4c-0.5,0-1.1-0.2-1.5-0.4l-0.4,0.9
	C21.1,32.4,21.8,32.6,22.5,32.6z M27.8,31.4c-0.1,0.1-0.3,0.2-0.5,0.2c-0.3,0-0.5-0.2-0.5-0.6v-1.8h1.1v-1h-1.1v-1h-1.2v1h-0.7v1
	h0.7v1.8c0,1,0.6,1.5,1.6,1.5c0.4,0,0.8-0.1,1-0.3L27.8,31.4z M30.6,28.2c-0.7,0-1.4,0.2-1.9,0.5l0.4,0.9c0.3-0.2,0.8-0.4,1.2-0.4
	c0.7,0,1,0.3,1,0.8h-1c-1.3,0-1.8,0.5-1.8,1.3c0,0.7,0.6,1.3,1.6,1.3c0.6,0,1.1-0.2,1.3-0.6v0.5h1.2v-2.5
	C32.6,28.8,31.9,28.2,30.6,28.2z M30.5,31.8c-0.4,0-0.7-0.2-0.7-0.5c0-0.3,0.2-0.5,0.8-0.5h0.9v0.4C31.2,31.6,30.9,31.8,30.5,31.8z
	 M37,32.5h1.5l-2-2.5l1.8-1.8h-1.5L35,30v-3.4h-1.2v5.9H35v-1.1l0.6-0.6L37,32.5z M43.1,30.4c0-1.4-1-2.2-2.2-2.2
	c-1.3,0-2.3,0.9-2.3,2.2c0,1.3,1,2.2,2.5,2.2c0.8,0,1.4-0.2,1.8-0.7l-0.7-0.7c-0.3,0.3-0.6,0.4-1.1,0.4c-0.7,0-1.1-0.3-1.2-0.9h3.3
	C43.1,30.6,43.1,30.5,43.1,30.4z M40.8,29.1c0.6,0,1,0.4,1.1,0.9h-2.1C39.9,29.5,40.3,29.1,40.8,29.1z M48.7,28.2
	c-0.6,0-1,0.2-1.4,0.6v-0.5h-1.2v5.9h1.2v-2c0.3,0.4,0.8,0.5,1.3,0.5c1.2,0,2.1-0.9,2.1-2.2C50.9,29,49.9,28.2,48.7,28.2z
	 M48.5,31.6c-0.6,0-1.1-0.4-1.1-1.2s0.5-1.2,1.1-1.2s1.1,0.4,1.1,1.2S49.1,31.6,48.5,31.6z M53.7,32.6c1.4,0,2.4-0.9,2.4-2.2
	s-1-2.2-2.4-2.2s-2.4,0.9-2.4,2.2S52.4,32.6,53.7,32.6z M53.7,31.6c-0.6,0-1.1-0.4-1.1-1.2s0.5-1.2,1.1-1.2s1.1,0.4,1.1,1.2
	S54.4,31.6,53.7,31.6z M59,32.6c1.4,0,2.4-0.9,2.4-2.2s-1-2.2-2.4-2.2s-2.4,0.9-2.4,2.2S57.6,32.6,59,32.6z M59,31.6
	c-0.6,0-1.1-0.4-1.1-1.2s0.5-1.2,1.1-1.2s1.1,0.4,1.1,1.2S59.6,31.6,59,31.6z M62.2,32.5h1.2v-5.9h-1.2V32.5z"/>
<line class="st3" x1="2" y1="30" x2="16" y2="30"/>
<line class="st3" x1="2" y1="30" x2="16" y2="30"/>
<line class="st3" x1="2" y1="30" x2="16" y2="30"/>
<line class="st3" x1="2" y1="30" x2="16" y2="30"/>
<line class="st3" x1="68" y1="30" x2="82" y2="30"/>
<line class="st3" x1="68" y1="30" x2="82" y2="30"/>
<line class="st3" x1="68" y1="30" x2="82" y2="30"/>
<line class="st3" x1="68" y1="30" x2="82" y2="30"/>
</svg>
