<svg width="781" height="789" viewBox="0 0 781 789" fill="none" xmlns="http://www.w3.org/2000/svg">
<g style="mix-blend-mode:multiply" opacity="0.2" filter="url(#filter0_f)">
<ellipse cx="372.5" cy="440" rx="285.5" ry="163" fill="black"/>
</g>
<mask id="mask0" mask-type="alpha" maskUnits="userSpaceOnUse" x="54" y="161" width="674" height="441">
<rect x="54" y="161" width="674" height="441" fill="url(#paint0_linear)"/>
</mask>
<g mask="url(#mask0)">
<g style="mix-blend-mode:multiply" opacity="0.2">
<ellipse cx="404.612" cy="418.926" rx="278.612" ry="158.926" fill="black"/>
</g>
<g style="mix-blend-mode:multiply" opacity="0.2">
<ellipse cx="370" cy="422.5" rx="299" ry="170.5" fill="black"/>
</g>
<path d="M687.223 407.011C687.223 494.784 562.485 565.938 408.612 565.938C254.739 565.938 130 494.784 130 407.011C130 391.096 130 374.31 130 374.31C164.46 308.855 282.639 248.085 408.612 248.085C537.088 248.085 655.018 310.115 687.223 377.58C687.223 377.58 687.223 392.524 687.223 407.011Z" fill="#CDDFE9"/>
<ellipse cx="408.612" cy="376.926" rx="278.612" ry="158.926" fill="#F4FBFE"/>
<ellipse cx="408.611" cy="376.926" rx="244.603" ry="139.306" fill="#CDDFE9"/>
<g opacity="0.8">
<mask id="mask1" mask-type="alpha" maskUnits="userSpaceOnUse" x="164" y="276" width="490" height="280">
<ellipse cx="408.611" cy="416.167" rx="244.603" ry="139.306" fill="#00A3FF"/>
</mask>
<g mask="url(#mask1)">
<ellipse cx="408.611" cy="376.926" rx="244.603" ry="139.306" fill="#00A3FF"/>
</g>
</g>
<g opacity="0.35">
<mask id="mask2" mask-type="alpha" maskUnits="userSpaceOnUse" x="177" y="323" width="490" height="279">
<ellipse opacity="0.3" cx="422.397" cy="462.65" rx="244.603" ry="139.306" fill="white"/>
</mask>
<g mask="url(#mask2)">
<ellipse cx="408.611" cy="390.661" rx="244.603" ry="153.04" fill="white"/>
</g>
</g>
<g opacity="0.8">
<mask id="mask3" mask-type="alpha" maskUnits="userSpaceOnUse" x="164" y="295" width="449" height="232">
<ellipse opacity="0.3" cx="388.5" cy="411" rx="224.5" ry="116" fill="white"/>
</mask>
<g mask="url(#mask3)">
<ellipse cx="408.611" cy="390.661" rx="244.603" ry="153.04" fill="white"/>
</g>
</g>
<path d="M495.702 358.76L470.312 342.423L373.65 276.638L353.962 257.816C320.749 297.478 336.051 369.599 366.321 392.449C393.938 413.295 468.147 398.211 495.702 358.76Z" fill="url(#paint1_linear)"/>
<path d="M352.831 332.583C369.117 360.376 402.502 382.074 433.942 385.222C465.382 388.37 492.894 372.788 500.795 347.408C503.562 338.594 504.095 328.78 502.387 318.703C499.434 301.533 489.725 283.844 475.445 269.627C461.164 255.41 442.468 244.884 423.569 240.306C399.341 234.475 375.234 238.895 359.823 251.942C344.412 264.989 338.122 286.403 343.132 308.487C344.954 316.615 348.296 324.777 352.831 332.583Z" fill="#FDD836"/>
<path d="M354.753 263.876C357.072 260.534 359.855 257.511 362.968 254.878C377.465 242.559 400.719 238.32 423.576 243.825C441.43 248.125 459.404 258.25 472.907 271.707C486.374 285.097 495.733 302.106 498.522 318.373C500.137 327.853 499.617 337.274 497.05 345.642C495.651 350.186 493.532 354.499 490.743 358.428C479.116 375.07 457.147 383.974 433.472 381.554C403.571 378.559 371.857 358.02 356.39 331.567C352.03 324.101 348.932 316.414 347.166 308.644C343.404 292.406 346.184 276.108 354.753 263.876Z" fill="#FFEEB3"/>
<path d="M433.437 309.215C448.623 308.916 464.51 308.728 479.696 308.429C481.984 308.368 484.392 309.707 485.851 311.706C488.806 315.942 490.706 320.635 491.203 325.106C491.68 329.286 490.907 333.293 489.085 336.68C487.964 338.761 485.05 339.359 482.249 338.008C465.582 330.004 449.291 320.646 433.272 311.147C432.274 310.544 432.361 309.21 433.437 309.215Z" fill="#E7C636"/>
<path d="M432.191 319.481C431.109 318.964 429.93 318.927 429.184 319.482C427.743 320.439 428.825 322.374 429.869 323.899C439.292 337.696 449.674 351.686 459.268 365.48C460.694 367.582 463.306 368.815 465.576 368.635C471.6 368.068 476.989 365.766 480.755 361.98C484.487 358.297 486.579 353.181 486.77 347.626C486.863 345.386 485.143 342.963 482.618 341.814C465.784 334.154 449.163 327.242 432.191 319.481Z" fill="#E7C636"/>
<path d="M457.345 274.949C448.269 283.275 440.184 293.109 433.074 303.085C432.016 304.619 433.958 307.056 436.058 306.877C451.145 305.469 466.47 304.024 481.557 302.615C482.838 302.515 483.474 301.414 483.067 300.206C479.512 290.048 470.667 280.294 460.043 274.849C459.029 274.297 457.987 274.361 457.345 274.949Z" fill="#E7C636"/>
<path d="M421.808 259.087C422.676 271.788 424.284 285.01 425.376 297.897C425.557 300.167 428.938 301.477 430.046 299.79C436.657 289.597 444.044 279.993 452.258 270.994C452.866 270.338 452.767 269.229 452.09 268.331C448.708 264.014 443.866 260.535 438.665 258.529C433.378 256.438 427.718 256.044 423.035 257.381C422.235 257.578 421.782 258.284 421.808 259.087Z" fill="#E7C636"/>
<path d="M422.456 297.983L417.471 254.918C417.374 253.979 416.594 253.049 415.598 252.616C410.412 250.388 404.67 248.833 399.806 249.317C394.943 249.802 390.204 252.198 386.976 255.192C386.334 255.781 386.346 256.806 386.904 257.722C396.314 271.911 406.812 285.541 418.176 298.768C419.855 300.61 422.737 300.115 422.456 297.983Z" fill="#E7C636"/>
<path d="M414.577 303.629C417.016 304.693 418.682 302.504 416.933 300.525C404.778 286.932 393.284 272.87 382.453 258.509C381.69 257.527 380.437 257.012 379.346 257.23C369.277 259.622 361.978 268.063 361.395 278.03C361.34 279.09 362.121 280.192 363.255 280.725C380.328 288.348 397.504 296.005 414.577 303.629Z" fill="#E7C636"/>
<path d="M424.067 325.898C424.108 341.002 422.182 355.872 420.098 370.351C419.941 371.548 420.931 372.886 422.336 373.28C428.046 374.938 433.788 376.493 439.394 376.701C445.274 376.939 451.425 375.448 454.747 371.804C455.27 371.234 455.293 370.277 454.822 369.445L428.644 325.776C427.338 323.656 424.075 323.746 424.067 325.898Z" fill="#E7C636"/>
<path d="M412.643 371.31C413.789 371.45 414.722 370.841 414.812 369.849L419.432 324.074C419.63 322.038 416.739 320.261 415.164 321.459C403.341 330.21 392.223 339.242 382.199 349.817C381.592 350.473 381.604 351.498 382.229 352.379C389.056 361.884 401.385 369.974 412.643 371.31Z" fill="#E7C636"/>
<path d="M378.765 345.483C390.235 335.883 401.535 326.284 412.989 316.734C414.546 315.418 412.684 312.552 410.378 312.665L362.448 315.127C361.304 315.158 360.579 316.003 360.746 317.078C362.088 326.527 367.591 336.799 375.221 344.859C376.225 345.975 377.851 346.212 378.765 345.483Z" fill="#E7C636"/>
<path d="M409.63 308.625C412.02 308.426 411.761 305.336 409.29 304.374L358.167 283.86C357.016 283.378 355.841 283.683 355.39 284.559C351.819 291.812 351.99 301.907 356.16 310.674C356.703 311.812 357.977 312.617 359.189 312.552C375.986 311.294 392.901 309.847 409.63 308.625Z" fill="#E7C636"/>
<g opacity="0.7">
<path d="M495.702 358.76L470.312 342.423L373.65 276.638L353.962 257.816C320.749 297.478 336.051 369.599 366.321 392.449C393.938 413.295 468.147 398.211 495.702 358.76Z" fill="#3CB9FF"/>
<path d="M352.831 332.583C369.117 360.376 402.502 382.074 433.942 385.222C465.382 388.37 492.894 372.788 500.795 347.408C503.562 338.594 504.095 328.78 502.387 318.703C499.434 301.533 489.725 283.844 475.445 269.627C461.164 255.41 442.468 244.884 423.569 240.306C399.341 234.475 375.234 238.895 359.823 251.942C344.412 264.989 338.122 286.403 343.132 308.487C344.954 316.615 348.296 324.777 352.831 332.583Z" fill="#3CB9FF"/>
<path d="M354.753 263.876C357.072 260.534 359.855 257.511 362.968 254.878C377.465 242.559 400.719 238.32 423.576 243.825C441.43 248.125 459.404 258.25 472.907 271.707C486.374 285.097 495.733 302.106 498.522 318.373C500.137 327.853 499.617 337.274 497.05 345.642C495.651 350.186 493.532 354.499 490.743 358.428C479.116 375.07 457.147 383.974 433.472 381.554C403.571 378.559 371.857 358.02 356.39 331.567C352.03 324.101 348.932 316.414 347.166 308.644C343.404 292.406 346.184 276.108 354.753 263.876Z" fill="#3CB9FF"/>
<path d="M433.437 309.215C448.623 308.916 464.51 308.728 479.696 308.429C481.984 308.368 484.392 309.707 485.851 311.706C488.806 315.942 490.706 320.635 491.203 325.106C491.68 329.286 490.907 333.293 489.085 336.68C487.964 338.761 485.05 339.359 482.249 338.008C465.582 330.004 449.291 320.646 433.272 311.147C432.274 310.544 432.361 309.21 433.437 309.215Z" fill="#3CB9FF"/>
<path d="M432.191 319.481C431.109 318.964 429.93 318.927 429.184 319.482C427.743 320.439 428.825 322.374 429.869 323.899C439.292 337.696 449.674 351.686 459.268 365.48C460.694 367.582 463.306 368.815 465.576 368.635C471.6 368.068 476.989 365.766 480.755 361.98C484.487 358.297 486.579 353.181 486.77 347.626C486.863 345.386 485.143 342.963 482.618 341.814C465.784 334.154 449.163 327.242 432.191 319.481Z" fill="#3CB9FF"/>
<path d="M457.345 274.949C448.269 283.275 440.184 293.109 433.074 303.085C432.016 304.619 433.958 307.056 436.058 306.877C451.145 305.469 466.47 304.024 481.557 302.615C482.838 302.515 483.474 301.414 483.067 300.206C479.512 290.048 470.667 280.294 460.043 274.849C459.029 274.297 457.987 274.361 457.345 274.949Z" fill="#3CB9FF"/>
<path d="M421.808 259.087C422.676 271.788 424.284 285.01 425.376 297.897C425.557 300.167 428.938 301.477 430.046 299.79C436.657 289.597 444.044 279.993 452.258 270.994C452.866 270.338 452.767 269.229 452.09 268.331C448.708 264.014 443.866 260.535 438.665 258.529C433.378 256.438 427.718 256.044 423.035 257.381C422.235 257.578 421.782 258.284 421.808 259.087Z" fill="#3CB9FF"/>
<path d="M422.456 297.983L417.471 254.918C417.374 253.979 416.594 253.049 415.598 252.616C410.412 250.388 404.67 248.833 399.806 249.317C394.943 249.802 390.204 252.198 386.976 255.192C386.334 255.781 386.346 256.806 386.904 257.722C396.314 271.911 406.812 285.541 418.176 298.768C419.855 300.61 422.737 300.115 422.456 297.983Z" fill="#3CB9FF"/>
<path d="M414.577 303.629C417.016 304.693 418.682 302.504 416.933 300.525C404.778 286.932 393.284 272.87 382.453 258.509C381.69 257.527 380.437 257.012 379.346 257.23C369.277 259.622 361.978 268.063 361.395 278.03C361.34 279.09 362.121 280.192 363.255 280.725C380.328 288.348 397.504 296.005 414.577 303.629Z" fill="#3CB9FF"/>
<path d="M424.067 325.898C424.108 341.002 422.182 355.872 420.098 370.351C419.941 371.548 420.931 372.886 422.336 373.28C428.046 374.938 433.788 376.493 439.394 376.701C445.274 376.939 451.425 375.448 454.747 371.804C455.27 371.234 455.293 370.277 454.822 369.445L428.644 325.776C427.338 323.656 424.075 323.746 424.067 325.898Z" fill="#3CB9FF"/>
<path d="M412.643 371.31C413.789 371.45 414.722 370.841 414.812 369.849L419.432 324.074C419.63 322.038 416.739 320.261 415.164 321.459C403.341 330.21 392.223 339.242 382.199 349.817C381.592 350.473 381.604 351.498 382.229 352.379C389.056 361.884 401.385 369.974 412.643 371.31Z" fill="#3CB9FF"/>
<path d="M378.765 345.483C390.235 335.883 401.535 326.284 412.989 316.734C414.546 315.418 412.684 312.552 410.378 312.665L362.448 315.127C361.304 315.158 360.579 316.003 360.746 317.078C362.088 326.527 367.591 336.799 375.221 344.859C376.225 345.975 377.851 346.212 378.765 345.483Z" fill="#3CB9FF"/>
<path d="M409.63 308.625C412.02 308.426 411.761 305.336 409.29 304.374L358.167 283.86C357.016 283.378 355.841 283.683 355.39 284.559C351.819 291.812 351.99 301.907 356.16 310.674C356.703 311.812 357.977 312.617 359.189 312.552C375.986 311.294 392.901 309.847 409.63 308.625Z" fill="#3CB9FF"/>
</g>
<mask id="mask4" mask-type="alpha" maskUnits="userSpaceOnUse" x="36" y="11" width="605" height="354">
<ellipse cx="338.173" cy="187.973" rx="298.397" ry="169.943" transform="rotate(1.23795 338.173 187.973)" fill="white"/>
</mask>
<g mask="url(#mask4)">
<path d="M495.701 358.76L470.311 342.423L373.65 276.638L353.962 257.816C320.749 297.478 336.051 369.599 366.321 392.449C393.938 413.295 468.147 398.211 495.701 358.76Z" fill="url(#paint2_linear)"/>
<path d="M352.83 332.583C369.116 360.376 402.501 382.074 433.942 385.222C465.382 388.37 492.893 372.788 500.795 347.408C503.561 338.594 504.095 328.781 502.387 318.703C499.433 301.533 489.725 283.844 475.444 269.627C461.164 255.41 442.467 244.884 423.568 240.306C399.34 234.475 375.234 238.895 359.823 251.942C344.412 264.989 338.121 286.403 343.132 308.487C344.953 316.615 348.296 324.777 352.83 332.583Z" fill="#FDD836"/>
<path d="M354.753 263.876C357.071 260.534 359.855 257.511 362.967 254.878C377.464 242.559 400.719 238.32 423.576 243.825C441.43 248.125 459.403 258.25 472.906 271.707C486.374 285.097 495.732 302.106 498.522 318.373C500.137 327.853 499.616 337.274 497.049 345.642C495.651 350.186 493.532 354.499 490.742 358.428C479.115 375.07 457.146 383.974 433.471 381.554C403.57 378.559 371.856 358.02 356.389 331.567C352.03 324.101 348.932 316.415 347.166 308.644C343.403 292.406 346.184 276.108 354.753 263.876Z" fill="#FFEEB3"/>
<path d="M433.437 309.215C448.622 308.916 464.51 308.728 479.695 308.429C481.984 308.368 484.392 309.707 485.851 311.706C488.805 315.942 490.706 320.635 491.203 325.106C491.679 329.286 490.906 333.293 489.084 336.68C487.964 338.761 485.049 339.359 482.249 338.008C465.581 330.004 449.291 320.646 433.272 311.147C432.274 310.544 432.361 309.21 433.437 309.215Z" fill="#E7C636"/>
<path d="M432.191 319.481C431.108 318.964 429.929 318.927 429.184 319.482C427.743 320.439 428.825 322.374 429.868 323.899C439.291 337.696 449.674 351.686 459.268 365.48C460.694 367.582 463.305 368.815 465.575 368.635C471.6 368.068 476.989 365.766 480.754 361.98C484.487 358.297 486.579 353.181 486.77 347.626C486.863 345.386 485.143 342.963 482.618 341.814C465.783 334.154 449.163 327.242 432.191 319.481Z" fill="#E7C636"/>
<path d="M457.345 274.949C448.268 283.275 440.183 293.109 433.074 303.085C432.015 304.619 433.958 307.056 436.057 306.877C451.144 305.469 466.47 304.024 481.557 302.616C482.837 302.515 483.473 301.414 483.066 300.206C479.512 290.048 470.666 280.294 460.043 274.849C459.028 274.297 457.987 274.361 457.345 274.949Z" fill="#E7C636"/>
<path d="M421.808 259.087C422.675 271.788 424.284 285.01 425.375 297.897C425.556 300.167 428.937 301.477 430.045 299.79C436.656 289.597 444.044 279.993 452.258 270.994C452.865 270.338 452.767 269.229 452.09 268.331C448.707 264.014 443.865 260.535 438.664 258.529C433.377 256.438 427.718 256.044 423.035 257.381C422.234 257.578 421.781 258.284 421.808 259.087Z" fill="#E7C636"/>
<path d="M422.455 297.983L417.47 254.918C417.374 253.979 416.594 253.049 415.598 252.616C410.412 250.388 404.67 248.833 399.806 249.317C394.942 249.802 390.204 252.198 386.976 255.192C386.334 255.781 386.346 256.806 386.903 257.722C396.314 271.911 406.812 285.541 418.176 298.768C419.855 300.611 422.737 300.115 422.455 297.983Z" fill="#E7C636"/>
<path d="M414.577 303.629C417.016 304.693 418.681 302.504 416.932 300.525C404.778 286.932 393.284 272.87 382.453 258.509C381.69 257.527 380.436 257.012 379.345 257.23C369.276 259.622 361.978 268.063 361.395 278.03C361.339 279.09 362.121 280.192 363.255 280.725C380.328 288.349 397.504 296.005 414.577 303.629Z" fill="#E7C636"/>
<path d="M424.066 325.898C424.108 341.002 422.182 355.872 420.097 370.351C419.941 371.548 420.93 372.886 422.336 373.28C428.045 374.938 433.787 376.493 439.394 376.701C445.274 376.939 451.424 375.448 454.747 371.804C455.27 371.234 455.293 370.277 454.822 369.445L428.643 325.776C427.337 323.656 424.075 323.746 424.066 325.898Z" fill="#E7C636"/>
<path d="M412.642 371.31C413.789 371.45 414.721 370.841 414.812 369.849L419.431 324.074C419.629 322.038 416.738 320.261 415.163 321.459C403.341 330.21 392.222 339.242 382.198 349.817C381.591 350.473 381.603 351.498 382.229 352.38C389.056 361.884 401.384 369.974 412.642 371.31Z" fill="#E7C636"/>
<path d="M378.764 345.483C390.235 335.883 401.535 326.284 412.989 316.735C414.545 315.418 412.683 312.552 410.378 312.665L362.448 315.127C361.304 315.158 360.579 316.004 360.745 317.078C362.087 326.527 367.59 336.799 375.22 344.859C376.224 345.975 377.85 346.212 378.764 345.483Z" fill="#E7C636"/>
<path d="M409.63 308.625C412.019 308.426 411.761 305.336 409.289 304.374L358.166 283.86C357.016 283.378 355.84 283.683 355.39 284.559C351.819 291.812 351.989 301.907 356.159 310.674C356.702 311.812 357.976 312.617 359.188 312.552C375.986 311.294 392.9 309.847 409.63 308.625Z" fill="#E7C636"/>
</g>
<path d="M495.702 358.76L470.312 342.423L373.65 276.638L353.962 257.816C320.749 297.478 336.051 369.599 366.321 392.449C393.938 413.295 468.147 398.211 495.702 358.76Z" fill="url(#paint3_linear)"/>
<path d="M352.831 332.583C369.117 360.376 402.502 382.074 433.942 385.222C465.382 388.37 492.894 372.788 500.795 347.408C503.562 338.594 504.095 328.78 502.387 318.703C499.434 301.533 489.725 283.844 475.445 269.627C461.164 255.41 442.468 244.884 423.569 240.306C399.341 234.475 375.234 238.895 359.823 251.942C344.412 264.989 338.122 286.403 343.132 308.487C344.954 316.615 348.296 324.777 352.831 332.583Z" fill="#FDD836"/>
<path d="M354.753 263.876C357.072 260.534 359.855 257.511 362.968 254.878C377.465 242.559 400.719 238.32 423.576 243.825C441.43 248.125 459.404 258.25 472.907 271.707C486.374 285.097 495.733 302.106 498.522 318.373C500.137 327.853 499.617 337.274 497.05 345.642C495.651 350.186 493.532 354.499 490.743 358.428C479.116 375.07 457.147 383.974 433.472 381.554C403.571 378.559 371.857 358.02 356.39 331.567C352.03 324.101 348.932 316.414 347.166 308.644C343.404 292.406 346.184 276.108 354.753 263.876Z" fill="#FFEEB3"/>
<path d="M433.437 309.215C448.623 308.916 464.51 308.728 479.696 308.429C481.984 308.368 484.392 309.707 485.851 311.706C488.806 315.942 490.706 320.635 491.203 325.106C491.68 329.286 490.907 333.293 489.085 336.68C487.964 338.761 485.05 339.359 482.249 338.008C465.582 330.004 449.291 320.646 433.272 311.147C432.274 310.544 432.361 309.21 433.437 309.215Z" fill="#E7C636"/>
<path d="M432.191 319.481C431.109 318.964 429.93 318.927 429.184 319.482C427.743 320.439 428.825 322.374 429.869 323.899C439.292 337.696 449.674 351.686 459.268 365.48C460.694 367.582 463.306 368.815 465.576 368.635C471.6 368.068 476.989 365.766 480.755 361.98C484.487 358.297 486.579 353.181 486.77 347.626C486.863 345.386 485.143 342.963 482.618 341.814C465.784 334.154 449.163 327.242 432.191 319.481Z" fill="#E7C636"/>
<path d="M457.345 274.949C448.269 283.275 440.184 293.109 433.074 303.085C432.016 304.619 433.958 307.056 436.058 306.877C451.145 305.469 466.47 304.024 481.557 302.615C482.838 302.515 483.474 301.414 483.067 300.206C479.512 290.048 470.667 280.294 460.043 274.849C459.029 274.297 457.987 274.361 457.345 274.949Z" fill="#E7C636"/>
<path d="M421.808 259.087C422.676 271.788 424.284 285.01 425.376 297.897C425.557 300.167 428.938 301.477 430.046 299.79C436.657 289.597 444.044 279.993 452.258 270.994C452.866 270.338 452.767 269.229 452.09 268.331C448.708 264.014 443.866 260.535 438.665 258.529C433.378 256.438 427.718 256.044 423.035 257.381C422.235 257.578 421.782 258.284 421.808 259.087Z" fill="#E7C636"/>
<path d="M422.456 297.983L417.471 254.918C417.374 253.979 416.594 253.049 415.598 252.616C410.412 250.388 404.67 248.833 399.806 249.317C394.943 249.802 390.204 252.198 386.976 255.192C386.334 255.781 386.346 256.806 386.904 257.722C396.314 271.911 406.812 285.541 418.176 298.768C419.855 300.61 422.737 300.115 422.456 297.983Z" fill="#E7C636"/>
<path d="M414.577 303.629C417.016 304.693 418.682 302.504 416.933 300.525C404.778 286.932 393.284 272.87 382.453 258.509C381.69 257.527 380.437 257.012 379.346 257.23C369.277 259.622 361.978 268.063 361.395 278.03C361.34 279.09 362.121 280.192 363.255 280.725C380.328 288.348 397.504 296.005 414.577 303.629Z" fill="#E7C636"/>
<path d="M424.067 325.898C424.108 341.002 422.182 355.872 420.098 370.351C419.941 371.548 420.931 372.886 422.336 373.28C428.046 374.938 433.788 376.493 439.394 376.701C445.274 376.939 451.425 375.448 454.747 371.804C455.27 371.234 455.293 370.277 454.822 369.445L428.644 325.776C427.338 323.656 424.075 323.746 424.067 325.898Z" fill="#E7C636"/>
<path d="M412.643 371.31C413.789 371.45 414.722 370.841 414.812 369.849L419.432 324.074C419.63 322.038 416.739 320.261 415.164 321.459C403.341 330.21 392.223 339.242 382.199 349.817C381.592 350.473 381.604 351.498 382.229 352.379C389.056 361.884 401.385 369.974 412.643 371.31Z" fill="#E7C636"/>
<path d="M378.765 345.483C390.235 335.883 401.535 326.284 412.989 316.734C414.546 315.418 412.684 312.552 410.378 312.665L362.448 315.127C361.304 315.158 360.579 316.003 360.746 317.078C362.088 326.527 367.591 336.799 375.221 344.859C376.225 345.975 377.851 346.212 378.765 345.483Z" fill="#E7C636"/>
<path d="M409.63 308.625C412.02 308.426 411.761 305.336 409.29 304.374L358.167 283.86C357.016 283.378 355.841 283.683 355.39 284.559C351.819 291.812 351.99 301.907 356.16 310.674C356.703 311.812 357.977 312.617 359.189 312.552C375.986 311.294 392.901 309.847 409.63 308.625Z" fill="#E7C636"/>
<g opacity="0.7">
<path d="M495.702 358.76L470.312 342.423L373.65 276.638L353.962 257.816C320.749 297.478 336.051 369.599 366.321 392.449C393.938 413.295 468.147 398.211 495.702 358.76Z" fill="#3CB9FF"/>
<path d="M352.831 332.583C369.117 360.376 402.502 382.074 433.942 385.222C465.382 388.37 492.894 372.788 500.795 347.408C503.562 338.594 504.095 328.78 502.387 318.703C499.434 301.533 489.725 283.844 475.445 269.627C461.164 255.41 442.468 244.884 423.569 240.306C399.341 234.475 375.234 238.895 359.823 251.942C344.412 264.989 338.122 286.403 343.132 308.487C344.954 316.615 348.296 324.777 352.831 332.583Z" fill="#3CB9FF"/>
<path d="M354.753 263.876C357.072 260.534 359.855 257.511 362.968 254.878C377.465 242.559 400.719 238.32 423.576 243.825C441.43 248.125 459.404 258.25 472.907 271.707C486.374 285.097 495.733 302.106 498.522 318.373C500.137 327.853 499.617 337.274 497.05 345.642C495.651 350.186 493.532 354.499 490.743 358.428C479.116 375.07 457.147 383.974 433.472 381.554C403.571 378.559 371.857 358.02 356.39 331.567C352.03 324.101 348.932 316.414 347.166 308.644C343.404 292.406 346.184 276.108 354.753 263.876Z" fill="#3CB9FF"/>
<path d="M433.437 309.215C448.623 308.916 464.51 308.728 479.696 308.429C481.984 308.368 484.392 309.707 485.851 311.706C488.806 315.942 490.706 320.635 491.203 325.106C491.68 329.286 490.907 333.293 489.085 336.68C487.964 338.761 485.05 339.359 482.249 338.008C465.582 330.004 449.291 320.646 433.272 311.147C432.274 310.544 432.361 309.21 433.437 309.215Z" fill="#3CB9FF"/>
<path d="M432.191 319.481C431.109 318.964 429.93 318.927 429.184 319.482C427.743 320.439 428.825 322.374 429.869 323.899C439.292 337.696 449.674 351.686 459.268 365.48C460.694 367.582 463.306 368.815 465.576 368.635C471.6 368.068 476.989 365.766 480.755 361.98C484.487 358.297 486.579 353.181 486.77 347.626C486.863 345.386 485.143 342.963 482.618 341.814C465.784 334.154 449.163 327.242 432.191 319.481Z" fill="#3CB9FF"/>
<path d="M457.345 274.949C448.269 283.275 440.184 293.109 433.074 303.085C432.016 304.619 433.958 307.056 436.058 306.877C451.145 305.469 466.47 304.024 481.557 302.615C482.838 302.515 483.474 301.414 483.067 300.206C479.512 290.048 470.667 280.294 460.043 274.849C459.029 274.297 457.987 274.361 457.345 274.949Z" fill="#3CB9FF"/>
<path d="M421.808 259.087C422.676 271.788 424.284 285.01 425.376 297.897C425.557 300.167 428.938 301.477 430.046 299.79C436.657 289.597 444.044 279.993 452.258 270.994C452.866 270.338 452.767 269.229 452.09 268.331C448.708 264.014 443.866 260.535 438.665 258.529C433.378 256.438 427.718 256.044 423.035 257.381C422.235 257.578 421.782 258.284 421.808 259.087Z" fill="#3CB9FF"/>
<path d="M422.456 297.983L417.471 254.918C417.374 253.979 416.594 253.049 415.598 252.616C410.412 250.388 404.67 248.833 399.806 249.317C394.943 249.802 390.204 252.198 386.976 255.192C386.334 255.781 386.346 256.806 386.904 257.722C396.314 271.911 406.812 285.541 418.176 298.768C419.855 300.61 422.737 300.115 422.456 297.983Z" fill="#3CB9FF"/>
<path d="M414.577 303.629C417.016 304.693 418.682 302.504 416.933 300.525C404.778 286.932 393.284 272.87 382.453 258.509C381.69 257.527 380.437 257.012 379.346 257.23C369.277 259.622 361.978 268.063 361.395 278.03C361.34 279.09 362.121 280.192 363.255 280.725C380.328 288.348 397.504 296.005 414.577 303.629Z" fill="#3CB9FF"/>
<path d="M424.067 325.898C424.108 341.002 422.182 355.872 420.098 370.351C419.941 371.548 420.931 372.886 422.336 373.28C428.046 374.938 433.788 376.493 439.394 376.701C445.274 376.939 451.425 375.448 454.747 371.804C455.27 371.234 455.293 370.277 454.822 369.445L428.644 325.776C427.338 323.656 424.075 323.746 424.067 325.898Z" fill="#3CB9FF"/>
<path d="M412.643 371.31C413.789 371.45 414.722 370.841 414.812 369.849L419.432 324.074C419.63 322.038 416.739 320.261 415.164 321.459C403.341 330.21 392.223 339.242 382.199 349.817C381.592 350.473 381.604 351.498 382.229 352.379C389.056 361.884 401.385 369.974 412.643 371.31Z" fill="#3CB9FF"/>
<path d="M378.765 345.483C390.235 335.883 401.535 326.284 412.989 316.734C414.546 315.418 412.684 312.552 410.378 312.665L362.448 315.127C361.304 315.158 360.579 316.003 360.746 317.078C362.088 326.527 367.591 336.799 375.221 344.859C376.225 345.975 377.851 346.212 378.765 345.483Z" fill="#3CB9FF"/>
<path d="M409.63 308.625C412.02 308.426 411.761 305.336 409.29 304.374L358.167 283.86C357.016 283.378 355.841 283.683 355.39 284.559C351.819 291.812 351.99 301.907 356.16 310.674C356.703 311.812 357.977 312.617 359.189 312.552C375.986 311.294 392.901 309.847 409.63 308.625Z" fill="#3CB9FF"/>
</g>
<mask id="mask5" mask-type="alpha" maskUnits="userSpaceOnUse" x="36" y="11" width="605" height="354">
<ellipse cx="338.173" cy="187.973" rx="298.397" ry="169.943" transform="rotate(1.23795 338.173 187.973)" fill="white"/>
</mask>
<g mask="url(#mask5)">
<path d="M495.701 358.76L470.311 342.423L373.65 276.638L353.962 257.816C320.749 297.478 336.051 369.599 366.321 392.449C393.938 413.295 468.147 398.211 495.701 358.76Z" fill="url(#paint4_linear)"/>
<path d="M352.83 332.583C369.116 360.376 402.501 382.074 433.942 385.222C465.382 388.37 492.893 372.788 500.795 347.408C503.561 338.594 504.095 328.781 502.387 318.703C499.433 301.533 489.725 283.844 475.444 269.627C461.164 255.41 442.467 244.884 423.568 240.306C399.34 234.475 375.234 238.895 359.823 251.942C344.412 264.989 338.121 286.403 343.132 308.487C344.953 316.615 348.296 324.777 352.83 332.583Z" fill="#FDD836"/>
<path d="M354.753 263.876C357.071 260.534 359.855 257.511 362.967 254.878C377.464 242.559 400.719 238.32 423.576 243.825C441.43 248.125 459.403 258.25 472.906 271.707C486.374 285.097 495.732 302.106 498.522 318.373C500.137 327.853 499.616 337.274 497.049 345.642C495.651 350.186 493.532 354.499 490.742 358.428C479.115 375.07 457.146 383.974 433.471 381.554C403.57 378.559 371.856 358.02 356.389 331.567C352.03 324.101 348.932 316.415 347.166 308.644C343.403 292.406 346.184 276.108 354.753 263.876Z" fill="#FFEEB3"/>
<path d="M433.437 309.215C448.622 308.916 464.51 308.728 479.695 308.429C481.984 308.368 484.392 309.707 485.851 311.706C488.805 315.942 490.706 320.635 491.203 325.106C491.679 329.286 490.906 333.293 489.084 336.68C487.964 338.761 485.049 339.359 482.249 338.008C465.581 330.004 449.291 320.646 433.272 311.147C432.274 310.544 432.361 309.21 433.437 309.215Z" fill="#E7C636"/>
<path d="M432.191 319.481C431.108 318.964 429.929 318.927 429.184 319.482C427.743 320.439 428.825 322.374 429.868 323.899C439.291 337.696 449.674 351.686 459.268 365.48C460.694 367.582 463.305 368.815 465.575 368.635C471.6 368.068 476.989 365.766 480.754 361.98C484.487 358.297 486.579 353.181 486.77 347.626C486.863 345.386 485.143 342.963 482.618 341.814C465.783 334.154 449.163 327.242 432.191 319.481Z" fill="#E7C636"/>
<path d="M457.345 274.949C448.268 283.275 440.183 293.109 433.074 303.085C432.015 304.619 433.958 307.056 436.057 306.877C451.144 305.469 466.47 304.024 481.557 302.616C482.837 302.515 483.473 301.414 483.066 300.206C479.512 290.048 470.666 280.294 460.043 274.849C459.028 274.297 457.987 274.361 457.345 274.949Z" fill="#E7C636"/>
<path d="M421.808 259.087C422.675 271.788 424.284 285.01 425.375 297.897C425.556 300.167 428.937 301.477 430.045 299.79C436.656 289.597 444.044 279.993 452.258 270.994C452.865 270.338 452.767 269.229 452.09 268.331C448.707 264.014 443.865 260.535 438.664 258.529C433.377 256.438 427.718 256.044 423.035 257.381C422.234 257.578 421.781 258.284 421.808 259.087Z" fill="#E7C636"/>
<path d="M422.455 297.983L417.47 254.918C417.374 253.979 416.594 253.049 415.598 252.616C410.412 250.388 404.67 248.833 399.806 249.317C394.942 249.802 390.204 252.198 386.976 255.192C386.334 255.781 386.346 256.806 386.903 257.722C396.314 271.911 406.812 285.541 418.176 298.768C419.855 300.611 422.737 300.115 422.455 297.983Z" fill="#E7C636"/>
<path d="M414.577 303.629C417.016 304.693 418.681 302.504 416.932 300.525C404.778 286.932 393.284 272.87 382.453 258.509C381.69 257.527 380.436 257.012 379.345 257.23C369.276 259.622 361.978 268.063 361.395 278.03C361.339 279.09 362.121 280.192 363.255 280.725C380.328 288.349 397.504 296.005 414.577 303.629Z" fill="#E7C636"/>
<path d="M424.066 325.898C424.108 341.002 422.182 355.872 420.097 370.351C419.941 371.548 420.93 372.886 422.336 373.28C428.045 374.938 433.787 376.493 439.394 376.701C445.274 376.939 451.424 375.448 454.747 371.804C455.27 371.234 455.293 370.277 454.822 369.445L428.643 325.776C427.337 323.656 424.075 323.746 424.066 325.898Z" fill="#E7C636"/>
<path d="M412.642 371.31C413.789 371.45 414.721 370.841 414.812 369.849L419.431 324.074C419.629 322.038 416.738 320.261 415.163 321.459C403.341 330.21 392.222 339.242 382.198 349.817C381.591 350.473 381.603 351.498 382.229 352.38C389.056 361.884 401.384 369.974 412.642 371.31Z" fill="#E7C636"/>
<path d="M378.764 345.483C390.235 335.883 401.535 326.284 412.989 316.735C414.545 315.418 412.683 312.552 410.378 312.665L362.448 315.127C361.304 315.158 360.579 316.004 360.745 317.078C362.087 326.527 367.59 336.799 375.22 344.859C376.224 345.975 377.85 346.212 378.764 345.483Z" fill="#E7C636"/>
<path d="M409.63 308.625C412.019 308.426 411.761 305.336 409.289 304.374L358.166 283.86C357.016 283.378 355.84 283.683 355.39 284.559C351.819 291.812 351.989 301.907 356.159 310.674C356.702 311.812 357.976 312.617 359.188 312.552C375.986 311.294 392.9 309.847 409.63 308.625Z" fill="#E7C636"/>
<ellipse cx="420.782" cy="265.988" rx="8.25501" ry="11.3983" transform="rotate(-49.7201 420.782 265.988)" fill="white" fill-opacity="0.5"/>
<ellipse cx="458.521" cy="289.789" rx="2.32069" ry="3.20435" transform="rotate(-49.7201 458.521 289.789)" fill="white" fill-opacity="0.8"/>
</g>
<g style="mix-blend-mode:darken" opacity="0.6">
<mask id="mask6" mask-type="alpha" maskUnits="userSpaceOnUse" x="158" y="228" width="490" height="279">
<ellipse cx="402.603" cy="367.306" rx="244.603" ry="139.306" fill="#00A3FF"/>
</mask>
<g mask="url(#mask6)">
<path fill-rule="evenodd" clip-rule="evenodd" d="M436.34 420.149C437.985 418.036 439.193 415.704 439.909 413.172C441.504 407.61 440.871 401.211 438.089 394.456C433.308 382.943 422.079 370.542 406.93 360.049C391.78 349.555 372.882 341.126 354.481 336.586C353.979 336.463 353.476 336.342 352.975 336.225C352.56 329.699 346.891 314.56 320.5 316C293 317.5 278.997 331.5 278.997 349.5L278.997 366C278.997 396 295.225 419.122 317.972 431.823C343.381 446.011 400.438 444.486 427.791 427.263C430.844 425.549 433.427 423.523 435.46 421.212C435.785 420.883 436.101 420.549 436.408 420.211C436.408 420.211 436.385 420.19 436.34 420.149Z" fill="#2A9EDF"/>
</g>
</g>
</g>
<mask id="mask7" mask-type="alpha" maskUnits="userSpaceOnUse" x="164" y="238" width="490" height="279">
<ellipse cx="408.603" cy="377.306" rx="244.603" ry="139.306" fill="#00A3FF"/>
</mask>
<g mask="url(#mask7)">
<g style="mix-blend-mode:overlay" opacity="0.04">
<path d="M217.5 387C217.5 372.746 217.5 304.254 217.5 290" stroke="black"/>
</g>
<g style="mix-blend-mode:overlay" opacity="0.03">
<path d="M195 411C195 396.461 195 323.539 195 309" stroke="black"/>
</g>
<g style="mix-blend-mode:overlay" opacity="0.03">
<path d="M177 423C177 408.746 177 346.254 177 332" stroke="black"/>
</g>
<g style="mix-blend-mode:overlay" opacity="0.06">
<path d="M245 367C245 353.481 245 288.519 245 275" stroke="black"/>
</g>
<g style="mix-blend-mode:overlay" opacity="0.1">
<path d="M280 349C280 334.507 280 272.493 280 258" stroke="black"/>
</g>
<g style="mix-blend-mode:overlay" opacity="0.1">
<path d="M320 336C320 322.04 320 254.96 320 241" stroke="black"/>
</g>
<g style="mix-blend-mode:overlay" opacity="0.1">
<path d="M422 338C422 323.746 422 255.254 422 241" stroke="black"/>
</g>
<g style="mix-blend-mode:overlay" opacity="0.1">
<path d="M474 338C474 323.746 474 255.254 474 241" stroke="black"/>
</g>
<g style="mix-blend-mode:overlay" opacity="0.1">
<path d="M517 334C517 320.334 517 254.666 517 241" stroke="black"/>
</g>
<g style="mix-blend-mode:overlay" opacity="0.1">
<path d="M552 344C552 330.334 552 264.666 552 251" stroke="black"/>
</g>
<g style="mix-blend-mode:overlay" opacity="0.1">
<path d="M581 356C581 343.362 581 282.638 581 270" stroke="black"/>
</g>
<g style="mix-blend-mode:overlay" opacity="0.1">
<path d="M606 370C606 358.979 606 306.021 606 295" stroke="black"/>
</g>
<g style="mix-blend-mode:overlay" opacity="0.1">
<path d="M628 387C628 376.273 628 324.727 628 314" stroke="black"/>
</g>
<g style="mix-blend-mode:overlay" opacity="0.1">
<path d="M644 403C644 393.154 644 345.846 644 336" stroke="black"/>
</g>
<g style="mix-blend-mode:overlay" opacity="0.1">
<path d="M360 328C360 313.746 360 245.254 360 231" stroke="black"/>
</g>
<path d="M525.442 434.091C527.986 433.018 529.18 430.085 528.107 427.541C527.034 424.996 524.102 423.803 521.557 424.876L525.442 434.091ZM327.058 506.876L322.451 508.818L326.335 518.033L330.943 516.09L327.058 506.876ZM521.557 424.876L327.058 506.876L330.943 516.09L525.442 434.091L521.557 424.876Z" fill="#5576D7" fill-opacity="0.6"/>
</g>
<path d="M495.528 359.137L470.138 342.8L373.476 277.015L353.788 258.193C320.575 297.855 335.878 369.976 366.147 392.825C393.764 413.672 467.974 398.588 495.528 359.137Z" fill="url(#paint5_linear)"/>
<path d="M352.657 332.959C368.943 360.753 402.328 382.45 433.768 385.599C465.209 388.747 492.72 373.165 500.622 347.785C503.388 338.97 503.921 329.157 502.213 319.08C499.26 301.909 489.551 284.221 475.271 270.004C460.99 255.786 442.294 245.26 423.395 240.682C399.167 234.852 375.06 239.271 359.649 252.318C344.239 265.366 337.948 286.78 342.958 308.863C344.78 316.992 348.122 325.153 352.657 332.959Z" fill="#FDD836"/>
<path d="M354.579 264.253C356.898 260.911 359.681 257.888 362.794 255.254C377.291 242.935 400.545 238.697 423.402 244.202C441.256 248.502 459.23 258.626 472.733 272.084C486.2 285.474 495.559 302.483 498.348 318.749C499.964 328.23 499.443 337.65 496.876 346.018C495.478 350.562 493.359 354.876 490.569 358.804C478.942 375.446 456.973 384.351 433.298 381.931C403.397 378.935 371.683 358.397 356.216 331.943C351.856 324.477 348.759 316.791 346.992 309.021C343.23 292.783 346.01 276.485 354.579 264.253Z" fill="#FFEEB3"/>
<path d="M433.264 309.591C448.449 309.292 464.336 309.105 479.522 308.806C481.811 308.745 484.218 310.083 485.677 312.082C488.632 316.318 490.532 321.012 491.029 325.482C491.506 329.662 490.733 333.67 488.911 337.057C487.791 339.137 484.876 339.736 482.075 338.385C465.408 330.381 449.117 321.022 433.099 311.524C432.1 310.921 432.187 309.587 433.264 309.591Z" fill="#E7C636"/>
<path d="M432.018 319.857C430.935 319.341 429.756 319.303 429.011 319.859C427.57 320.815 428.652 322.75 429.695 324.276C439.118 338.072 449.5 352.062 459.094 365.857C460.52 367.958 463.132 369.192 465.402 369.011C471.427 368.445 476.815 366.143 480.581 362.357C484.313 358.673 486.406 353.557 486.596 348.002C486.689 345.763 484.969 343.34 482.444 342.191C465.61 334.53 448.99 327.619 432.018 319.857Z" fill="#E7C636"/>
<path d="M457.171 275.326C448.095 283.651 440.01 293.485 432.9 303.462C431.842 304.995 433.784 307.432 435.884 307.254C450.971 305.846 466.297 304.4 481.384 302.992C482.664 302.891 483.3 301.79 482.893 300.582C479.339 290.424 470.493 280.67 459.87 275.226C458.855 274.674 457.814 274.737 457.171 275.326Z" fill="#E7C636"/>
<path d="M421.634 259.463C422.502 272.164 424.11 285.387 425.202 298.273C425.383 300.544 428.764 301.853 429.872 300.166C436.483 289.973 443.87 280.369 452.085 271.371C452.692 270.714 452.593 269.605 451.916 268.708C448.534 264.391 443.692 260.911 438.491 258.905C433.204 256.815 427.544 256.42 422.861 257.757C422.061 257.954 421.608 258.66 421.634 259.463Z" fill="#E7C636"/>
<path d="M422.282 298.359L417.297 255.294C417.2 254.356 416.421 253.425 415.424 252.993C410.238 250.764 404.496 249.209 399.633 249.694C394.769 250.178 390.03 252.575 386.802 255.569C386.16 256.157 386.172 257.182 386.73 258.098C396.141 272.288 406.638 285.918 418.003 299.144C419.682 300.987 422.563 300.492 422.282 298.359Z" fill="#E7C636"/>
<path d="M414.403 304.005C416.842 305.07 418.508 302.88 416.759 300.902C404.604 287.309 393.111 273.246 382.28 258.886C381.516 257.904 380.263 257.389 379.172 257.607C369.103 259.998 361.804 268.439 361.222 278.407C361.166 279.467 361.948 280.568 363.082 281.101C380.155 288.725 397.33 296.382 414.403 304.005Z" fill="#E7C636"/>
<path d="M423.893 326.275C423.934 341.378 422.008 356.248 419.924 370.727C419.767 371.925 420.757 373.263 422.163 373.656C427.872 375.315 433.614 376.87 439.22 377.077C445.1 377.315 451.251 375.824 454.574 372.18C455.096 371.61 455.119 370.653 454.648 369.821L428.47 326.152C427.164 324.032 423.901 324.122 423.893 326.275Z" fill="#E7C636"/>
<path d="M412.469 371.686C413.615 371.827 414.548 371.218 414.639 370.226L419.258 324.45C419.456 322.415 416.565 320.638 414.99 321.835C403.168 330.586 392.049 339.619 382.025 350.193C381.418 350.85 381.43 351.875 382.055 352.756C388.882 362.26 401.211 370.35 412.469 371.686Z" fill="#E7C636"/>
<path d="M378.591 345.86C390.061 336.259 401.361 326.66 412.815 317.111C414.372 315.794 412.51 312.929 410.205 313.041L362.275 315.504C361.13 315.534 360.406 316.38 360.572 317.454C361.914 326.904 367.417 337.176 375.047 345.235C376.051 346.351 377.677 346.588 378.591 345.86Z" fill="#E7C636"/>
<path d="M409.456 309.001C411.846 308.802 411.587 305.713 409.116 304.751L357.993 284.237C356.842 283.755 355.667 284.059 355.216 284.936C351.646 292.188 351.816 302.284 355.986 311.051C356.529 312.189 357.803 312.994 359.015 312.928C375.812 311.671 392.727 310.224 409.456 309.001Z" fill="#E7C636"/>
<g opacity="0.7">
<path d="M495.528 359.137L470.138 342.8L373.476 277.015L353.788 258.193C320.575 297.855 335.878 369.976 366.147 392.825C393.764 413.672 467.974 398.588 495.528 359.137Z" fill="#3CB9FF"/>
<path d="M352.657 332.959C368.943 360.753 402.328 382.45 433.768 385.599C465.209 388.747 492.72 373.165 500.622 347.785C503.388 338.97 503.921 329.157 502.213 319.08C499.26 301.909 489.551 284.221 475.271 270.004C460.99 255.786 442.294 245.26 423.395 240.682C399.167 234.852 375.06 239.271 359.649 252.318C344.239 265.366 337.948 286.78 342.958 308.863C344.78 316.992 348.122 325.153 352.657 332.959Z" fill="#3CB9FF"/>
<path d="M354.579 264.253C356.898 260.911 359.681 257.888 362.794 255.254C377.291 242.935 400.545 238.697 423.402 244.202C441.256 248.502 459.23 258.626 472.733 272.084C486.2 285.474 495.559 302.483 498.348 318.749C499.964 328.23 499.443 337.65 496.876 346.018C495.478 350.562 493.359 354.876 490.569 358.804C478.942 375.446 456.973 384.351 433.298 381.931C403.397 378.935 371.683 358.397 356.216 331.943C351.856 324.477 348.759 316.791 346.992 309.021C343.23 292.783 346.01 276.485 354.579 264.253Z" fill="#3CB9FF"/>
<path d="M433.264 309.591C448.449 309.292 464.336 309.105 479.522 308.806C481.811 308.745 484.218 310.083 485.677 312.082C488.632 316.318 490.532 321.012 491.029 325.482C491.506 329.662 490.733 333.67 488.911 337.057C487.791 339.137 484.876 339.736 482.075 338.385C465.408 330.381 449.117 321.022 433.099 311.524C432.1 310.921 432.187 309.587 433.264 309.591Z" fill="#3CB9FF"/>
<path d="M432.018 319.857C430.935 319.341 429.756 319.303 429.011 319.859C427.57 320.815 428.652 322.75 429.695 324.276C439.118 338.072 449.5 352.062 459.094 365.857C460.52 367.958 463.132 369.192 465.402 369.011C471.427 368.445 476.815 366.143 480.581 362.357C484.313 358.673 486.406 353.557 486.596 348.002C486.689 345.763 484.969 343.34 482.444 342.191C465.61 334.53 448.99 327.619 432.018 319.857Z" fill="#3CB9FF"/>
<path d="M457.171 275.326C448.095 283.651 440.01 293.485 432.9 303.462C431.842 304.995 433.784 307.432 435.884 307.254C450.971 305.846 466.297 304.4 481.384 302.992C482.664 302.891 483.3 301.79 482.893 300.582C479.339 290.424 470.493 280.67 459.87 275.226C458.855 274.674 457.814 274.737 457.171 275.326Z" fill="#3CB9FF"/>
<path d="M421.634 259.463C422.502 272.164 424.11 285.387 425.202 298.273C425.383 300.544 428.764 301.853 429.872 300.166C436.483 289.973 443.87 280.369 452.085 271.371C452.692 270.714 452.593 269.605 451.916 268.708C448.534 264.391 443.692 260.911 438.491 258.905C433.204 256.815 427.544 256.42 422.861 257.757C422.061 257.954 421.608 258.66 421.634 259.463Z" fill="#3CB9FF"/>
<path d="M422.282 298.359L417.297 255.294C417.2 254.356 416.421 253.425 415.424 252.993C410.238 250.764 404.496 249.209 399.633 249.694C394.769 250.178 390.03 252.575 386.802 255.569C386.16 256.157 386.172 257.182 386.73 258.098C396.141 272.288 406.638 285.918 418.003 299.144C419.682 300.987 422.563 300.492 422.282 298.359Z" fill="#3CB9FF"/>
<path d="M414.403 304.005C416.842 305.07 418.508 302.88 416.759 300.902C404.604 287.309 393.111 273.246 382.28 258.886C381.516 257.904 380.263 257.389 379.172 257.607C369.103 259.998 361.804 268.439 361.222 278.407C361.166 279.467 361.948 280.568 363.082 281.101C380.155 288.725 397.33 296.382 414.403 304.005Z" fill="#3CB9FF"/>
<path d="M423.893 326.275C423.934 341.378 422.008 356.248 419.924 370.727C419.767 371.925 420.757 373.263 422.163 373.656C427.872 375.315 433.614 376.87 439.22 377.077C445.1 377.315 451.251 375.824 454.574 372.18C455.096 371.61 455.119 370.653 454.648 369.821L428.47 326.152C427.164 324.032 423.901 324.122 423.893 326.275Z" fill="#3CB9FF"/>
<path d="M412.469 371.686C413.615 371.827 414.548 371.218 414.639 370.226L419.258 324.45C419.456 322.415 416.565 320.638 414.99 321.835C403.168 330.586 392.049 339.619 382.025 350.193C381.418 350.85 381.43 351.875 382.055 352.756C388.882 362.26 401.211 370.35 412.469 371.686Z" fill="#3CB9FF"/>
<path d="M378.591 345.86C390.061 336.259 401.361 326.66 412.815 317.111C414.372 315.794 412.51 312.929 410.205 313.041L362.275 315.504C361.13 315.534 360.406 316.38 360.572 317.454C361.914 326.904 367.417 337.176 375.047 345.235C376.051 346.351 377.677 346.588 378.591 345.86Z" fill="#3CB9FF"/>
<path d="M409.456 309.001C411.846 308.802 411.587 305.713 409.116 304.751L357.993 284.237C356.842 283.755 355.667 284.059 355.216 284.936C351.646 292.188 351.816 302.284 355.986 311.051C356.529 312.189 357.803 312.994 359.015 312.928C375.812 311.671 392.727 310.224 409.456 309.001Z" fill="#3CB9FF"/>
</g>
<mask id="mask8" mask-type="alpha" maskUnits="userSpaceOnUse" x="36" y="12" width="604" height="352">
<path d="M636.327 194.797C634.463 281.076 520.001 349.894 373.5 357.65C362.5 355 341 343 336 333C171.238 329.44 37.644 275.738 39.6717 181.903C41.6995 88.0682 176.909 14.8863 341.671 18.4467C506.433 22.0072 638.355 100.962 636.327 194.797Z" fill="white"/>
</mask>
<g mask="url(#mask8)">
<path d="M495.527 359.137L470.138 342.8L373.476 277.015L353.788 258.193C320.575 297.855 335.877 369.976 366.147 392.825C393.764 413.672 467.973 398.588 495.527 359.137Z" fill="url(#paint6_linear)"/>
<path d="M352.656 332.959C368.942 360.753 402.327 382.45 433.768 385.599C465.208 388.747 492.72 373.165 500.621 347.785C503.387 338.97 503.921 329.157 502.213 319.08C499.259 301.909 489.551 284.221 475.27 270.004C460.99 255.786 442.294 245.26 423.394 240.682C399.167 234.852 375.06 239.271 359.649 252.318C344.238 265.366 337.947 286.78 342.958 308.863C344.779 316.992 348.122 325.153 352.656 332.959Z" fill="#FDD836"/>
<path d="M354.579 264.253C356.897 260.911 359.681 257.888 362.793 255.254C377.29 242.935 400.545 238.697 423.402 244.202C441.256 248.502 459.23 258.626 472.732 272.084C486.2 285.474 495.559 302.483 498.348 318.749C499.963 328.23 499.442 337.65 496.876 346.018C495.477 350.562 493.358 354.876 490.568 358.804C478.942 375.446 456.972 384.351 433.297 381.931C403.397 378.935 371.683 358.397 356.215 331.943C351.856 324.477 348.758 316.791 346.992 309.021C343.229 292.783 346.01 276.485 354.579 264.253Z" fill="#FFEEB3"/>
<path d="M433.263 309.591C448.449 309.292 464.336 309.105 479.521 308.806C481.81 308.745 484.218 310.083 485.677 312.082C488.631 316.319 490.532 321.012 491.029 325.482C491.505 329.662 490.733 333.67 488.91 337.057C487.79 339.138 484.876 339.736 482.075 338.385C465.407 330.381 449.117 321.022 433.098 311.524C432.1 310.921 432.187 309.587 433.263 309.591Z" fill="#E7C636"/>
<path d="M432.017 319.857C430.935 319.341 429.755 319.303 429.01 319.859C427.569 320.815 428.651 322.75 429.694 324.276C439.118 338.072 449.5 352.062 459.094 365.857C460.52 367.958 463.131 369.192 465.402 369.011C471.426 368.445 476.815 366.143 480.58 362.357C484.313 358.673 486.405 353.557 486.596 348.002C486.689 345.763 484.969 343.34 482.444 342.191C465.61 334.53 448.989 327.619 432.017 319.857Z" fill="#E7C636"/>
<path d="M457.171 275.326C448.094 283.651 440.009 293.485 432.9 303.462C431.842 304.995 433.784 307.432 435.883 307.254C450.97 305.846 466.296 304.4 481.383 302.992C482.663 302.891 483.3 301.79 482.892 300.582C479.338 290.424 470.492 280.67 459.869 275.226C458.855 274.674 457.813 274.737 457.171 275.326Z" fill="#E7C636"/>
<path d="M421.634 259.463C422.501 272.164 424.11 285.387 425.202 298.273C425.382 300.544 428.764 301.853 429.871 300.166C436.483 289.973 443.87 280.369 452.084 271.371C452.691 270.715 452.593 269.605 451.916 268.708C448.533 264.391 443.691 260.911 438.491 258.905C433.204 256.815 427.544 256.42 422.861 257.757C422.06 257.955 421.607 258.66 421.634 259.463Z" fill="#E7C636"/>
<path d="M422.281 298.359L417.296 255.294C417.2 254.356 416.42 253.425 415.424 252.993C410.238 250.765 404.496 249.209 399.632 249.694C394.769 250.178 390.03 252.575 386.802 255.569C386.16 256.157 386.172 257.182 386.729 258.098C396.14 272.288 406.638 285.918 418.002 299.144C419.681 300.987 422.563 300.492 422.281 298.359Z" fill="#E7C636"/>
<path d="M414.403 304.005C416.842 305.07 418.507 302.88 416.758 300.902C404.604 287.309 393.11 273.246 382.279 258.886C381.516 257.904 380.263 257.389 379.172 257.607C369.102 259.998 361.804 268.439 361.221 278.407C361.165 279.467 361.947 280.568 363.081 281.101C380.154 288.725 397.33 296.382 414.403 304.005Z" fill="#E7C636"/>
<path d="M423.892 326.275C423.934 341.378 422.008 356.248 419.924 370.727C419.767 371.925 420.757 373.263 422.162 373.656C427.871 375.315 433.613 376.87 439.22 377.077C445.1 377.315 451.25 375.825 454.573 372.18C455.096 371.61 455.119 370.653 454.648 369.822L428.47 326.153C427.163 324.032 423.901 324.122 423.892 326.275Z" fill="#E7C636"/>
<path d="M412.468 371.686C413.615 371.827 414.547 371.218 414.638 370.226L419.257 324.45C419.456 322.415 416.564 320.638 414.989 321.835C403.167 330.586 392.049 339.619 382.025 350.193C381.417 350.85 381.429 351.875 382.055 352.756C388.882 362.26 401.21 370.35 412.468 371.686Z" fill="#E7C636"/>
<path d="M378.59 345.86C390.061 336.259 401.361 326.66 412.815 317.111C414.371 315.794 412.509 312.929 410.204 313.041L362.274 315.504C361.13 315.534 360.405 316.38 360.571 317.454C361.913 326.904 367.416 337.176 375.046 345.235C376.05 346.351 377.676 346.588 378.59 345.86Z" fill="#E7C636"/>
<path d="M409.456 309.001C411.846 308.802 411.587 305.713 409.115 304.751L357.992 284.237C356.842 283.755 355.667 284.059 355.216 284.936C351.645 292.188 351.816 302.284 355.985 311.051C356.528 312.189 357.802 312.994 359.015 312.928C375.812 311.671 392.727 310.224 409.456 309.001Z" fill="#E7C636"/>
<ellipse cx="420.608" cy="266.364" rx="8.25501" ry="11.3983" transform="rotate(-49.7201 420.608 266.364)" fill="white" fill-opacity="0.5"/>
<ellipse cx="458.347" cy="290.165" rx="2.32069" ry="3.20435" transform="rotate(-49.7201 458.347 290.165)" fill="white" fill-opacity="0.8"/>
</g>
<path d="M523 429L621.5 200C621.5 200 618.5 194 623.5 189.5C628.5 185 634 187.5 634 187.5L700.5 171" stroke="url(#paint7_linear)" stroke-width="10" stroke-linecap="round" stroke-linejoin="round"/>
<path d="M526 429L624.5 200C624.5 200 622.5 194.5 625.5 191C628.5 187.5 634.5 190 634.5 190L702 173" stroke="url(#paint8_linear)" stroke-width="5" stroke-linecap="round" stroke-linejoin="round"/>
<path opacity="0.2" d="M625.5 199.5L617 200M633.5 191.5L634 183M626.5 192L620.5 186.5M625 195L617 193M629.5 191L627.5 183" stroke="#223037" stroke-width="2" stroke-linecap="round"/>
<path opacity="0.6" d="M518.415 427.005C517.313 429.537 518.473 432.483 521.005 433.585C523.537 434.687 526.483 433.527 527.585 430.995L518.415 427.005ZM561.085 353.995L563.08 349.41L553.91 345.42L551.915 350.005L561.085 353.995ZM527.585 430.995L561.085 353.995L551.915 350.005L518.415 427.005L527.585 430.995Z" fill="#3E7CD9"/>
<path d="M558.5 359.5L565.5 343.5C565.5 343.5 563 345.5 559.5 345C556 344.5 555 342.5 555 342.5L550.5 353L558.5 359.5Z" fill="#8058D1"/>
<path d="M558.5 359.5L565.5 343.5C565.5 343.5 563 345.5 559.5 345L554.5 356.25L558.5 359.5Z" fill="#7156C3"/>
<defs>
<filter id="filter0_f" x="27" y="217" width="691" height="446" filterUnits="userSpaceOnUse" color-interpolation-filters="sRGB">
<feFlood flood-opacity="0" result="BackgroundImageFix"/>
<feBlend mode="normal" in="SourceGraphic" in2="BackgroundImageFix" result="shape"/>
<feGaussianBlur stdDeviation="30" result="effect1_foregroundBlur"/>
</filter>
<linearGradient id="paint0_linear" x1="491.5" y1="208" x2="-144.5" y2="675" gradientUnits="userSpaceOnUse">
<stop/>
<stop offset="1" stop-opacity="0"/>
</linearGradient>
<linearGradient id="paint1_linear" x1="346.556" y1="309.98" x2="431.728" y2="397.606" gradientUnits="userSpaceOnUse">
<stop stop-color="#FEF000"/>
<stop offset="1" stop-color="#FEC116"/>
</linearGradient>
<linearGradient id="paint2_linear" x1="346.555" y1="309.98" x2="431.728" y2="397.606" gradientUnits="userSpaceOnUse">
<stop stop-color="#FEF000"/>
<stop offset="1" stop-color="#FEC116"/>
</linearGradient>
<linearGradient id="paint3_linear" x1="346.556" y1="309.98" x2="431.728" y2="397.606" gradientUnits="userSpaceOnUse">
<stop stop-color="#FEF000"/>
<stop offset="1" stop-color="#FEC116"/>
</linearGradient>
<linearGradient id="paint4_linear" x1="362.5" y1="343" x2="341" y2="349.5" gradientUnits="userSpaceOnUse">
<stop stop-color="#FEF000"/>
<stop offset="1" stop-color="#FEC116"/>
</linearGradient>
<linearGradient id="paint5_linear" x1="346.382" y1="310.356" x2="431.554" y2="397.983" gradientUnits="userSpaceOnUse">
<stop stop-color="#FEF000"/>
<stop offset="1" stop-color="#FEC116"/>
</linearGradient>
<linearGradient id="paint6_linear" x1="362.326" y1="343.376" x2="340.826" y2="349.876" gradientUnits="userSpaceOnUse">
<stop stop-color="#FEF000"/>
<stop offset="1" stop-color="#FEC116"/>
</linearGradient>
<linearGradient id="paint7_linear" x1="591" y1="269" x2="684.5" y2="174.5" gradientUnits="userSpaceOnUse">
<stop stop-color="#E220C3"/>
<stop offset="1" stop-color="#FF42E1"/>
</linearGradient>
<linearGradient id="paint8_linear" x1="594" y1="269" x2="687.5" y2="174.5" gradientUnits="userSpaceOnUse">
<stop stop-color="#F362DC"/>
<stop offset="1" stop-color="#E782D6"/>
</linearGradient>
</defs>
</svg>
