<svg width="781" height="789" viewBox="0 0 781 789" fill="none" xmlns="http://www.w3.org/2000/svg">
<g style="mix-blend-mode:multiply" opacity="0.2" filter="url(#filter0_f)">
<ellipse cx="372.5" cy="440" rx="285.5" ry="163" fill="black"/>
</g>
<mask id="mask0" mask-type="alpha" maskUnits="userSpaceOnUse" x="54" y="161" width="674" height="441">
<rect x="54" y="161" width="674" height="441" fill="url(#paint0_linear)"/>
</mask>
<g mask="url(#mask0)">
<g style="mix-blend-mode:multiply" opacity="0.2">
<ellipse cx="404.612" cy="418.926" rx="278.612" ry="158.926" fill="black"/>
</g>
<g style="mix-blend-mode:multiply" opacity="0.2">
<ellipse cx="370" cy="422.5" rx="299" ry="170.5" fill="black"/>
</g>
<path d="M687.223 407.011C687.223 494.784 562.485 565.938 408.612 565.938C254.739 565.938 130 494.784 130 407.011C130 391.096 130 374.31 130 374.31C164.46 308.855 282.639 248.085 408.612 248.085C537.088 248.085 655.018 310.115 687.223 377.58C687.223 377.58 687.223 392.524 687.223 407.011Z" fill="#CDDFE9"/>
<ellipse cx="408.612" cy="376.926" rx="278.612" ry="158.926" fill="#F4FBFE"/>
<ellipse cx="408.611" cy="376.926" rx="244.603" ry="139.306" fill="#CDDFE9"/>
<g opacity="0.8">
<mask id="mask1" mask-type="alpha" maskUnits="userSpaceOnUse" x="164" y="276" width="490" height="280">
<ellipse cx="408.611" cy="416.167" rx="244.603" ry="139.306" fill="#00A3FF"/>
</mask>
<g mask="url(#mask1)">
<ellipse cx="408.611" cy="376.926" rx="244.603" ry="139.306" fill="#00A3FF"/>
</g>
</g>
<g opacity="0.35">
<mask id="mask2" mask-type="alpha" maskUnits="userSpaceOnUse" x="177" y="323" width="490" height="279">
<ellipse opacity="0.3" cx="422.397" cy="462.65" rx="244.603" ry="139.306" fill="white"/>
</mask>
<g mask="url(#mask2)">
<ellipse cx="408.611" cy="390.661" rx="244.603" ry="153.04" fill="white"/>
</g>
</g>
<g opacity="0.8">
<mask id="mask3" mask-type="alpha" maskUnits="userSpaceOnUse" x="164" y="295" width="449" height="232">
<ellipse opacity="0.3" cx="388.5" cy="411" rx="224.5" ry="116" fill="white"/>
</mask>
<g mask="url(#mask3)">
<ellipse cx="408.611" cy="390.661" rx="244.603" ry="153.04" fill="white"/>
</g>
</g>
<g style="mix-blend-mode:darken" opacity="0.6">
<mask id="mask4" mask-type="alpha" maskUnits="userSpaceOnUse" x="144" y="258" width="490" height="279">
<ellipse cx="388.603" cy="397.306" rx="244.603" ry="139.306" fill="#00A3FF"/>
</mask>
<g mask="url(#mask4)">
<path fill-rule="evenodd" clip-rule="evenodd" d="M410.634 424.243C418.249 420.822 423.509 415.834 425.443 409.593C427.093 404.338 426.528 398.316 423.822 391.98C419.171 381.181 408.094 369.607 393.084 359.867C378.073 350.127 359.301 342.368 340.984 338.267C340.484 338.155 339.985 338.047 339.487 337.941C339.116 331.785 333.583 317.691 307.333 319.291C279.907 320.963 265.804 334.254 265.616 351.172L265.444 366.679C265.131 394.875 281.064 416.452 303.604 428.172C328.047 440.882 382.373 439.39 410.634 424.243Z" fill="#2A9EDF"/>
</g>
</g>
</g>
<mask id="mask5" mask-type="alpha" maskUnits="userSpaceOnUse" x="164" y="238" width="490" height="279">
<ellipse cx="408.603" cy="377.306" rx="244.603" ry="139.306" fill="#00A3FF"/>
</mask>
<g mask="url(#mask5)">
<g style="mix-blend-mode:overlay" opacity="0.04">
<path d="M217.5 387C217.5 372.746 217.5 304.254 217.5 290" stroke="black"/>
</g>
<g style="mix-blend-mode:overlay" opacity="0.03">
<path d="M195 411C195 396.461 195 323.539 195 309" stroke="black"/>
</g>
<g style="mix-blend-mode:overlay" opacity="0.03">
<path d="M177 423C177 408.746 177 346.254 177 332" stroke="black"/>
</g>
<g style="mix-blend-mode:overlay" opacity="0.06">
<path d="M245 367C245 353.481 245 288.519 245 275" stroke="black"/>
</g>
<g style="mix-blend-mode:overlay" opacity="0.1">
<path d="M280 349C280 334.507 280 272.493 280 258" stroke="black"/>
</g>
<g style="mix-blend-mode:overlay" opacity="0.1">
<path d="M320 336C320 322.04 320 254.96 320 241" stroke="black"/>
</g>
<g style="mix-blend-mode:overlay" opacity="0.1">
<path d="M422 338C422 323.746 422 255.254 422 241" stroke="black"/>
</g>
<g style="mix-blend-mode:overlay" opacity="0.1">
<path d="M474 338C474 323.746 474 255.254 474 241" stroke="black"/>
</g>
<g style="mix-blend-mode:overlay" opacity="0.1">
<path d="M517 334C517 320.334 517 254.666 517 241" stroke="black"/>
</g>
<g style="mix-blend-mode:overlay" opacity="0.1">
<path d="M552 344C552 330.334 552 264.666 552 251" stroke="black"/>
</g>
<g style="mix-blend-mode:overlay" opacity="0.1">
<path d="M581 356C581 343.362 581 282.638 581 270" stroke="black"/>
</g>
<g style="mix-blend-mode:overlay" opacity="0.1">
<path d="M606 370C606 358.979 606 306.021 606 295" stroke="black"/>
</g>
<g style="mix-blend-mode:overlay" opacity="0.1">
<path d="M628 387C628 376.273 628 324.727 628 314" stroke="black"/>
</g>
<g style="mix-blend-mode:overlay" opacity="0.1">
<path d="M644 403C644 393.154 644 345.846 644 336" stroke="black"/>
</g>
<g style="mix-blend-mode:overlay" opacity="0.1">
<path d="M360 328C360 313.746 360 245.254 360 231" stroke="black"/>
</g>
<path d="M525.442 434.091C527.986 433.018 529.18 430.085 528.107 427.541C527.034 424.996 524.102 423.803 521.557 424.876L525.442 434.091ZM327.058 506.876L322.451 508.818L326.335 518.033L330.943 516.09L327.058 506.876ZM521.557 424.876L327.058 506.876L330.943 516.09L525.442 434.091L521.557 424.876Z" fill="#5576D7" fill-opacity="0.6"/>
</g>
<mask id="mask6" mask-type="alpha" maskUnits="userSpaceOnUse" x="314" y="290" width="179" height="139">
<path d="M490.387 323.133C489.588 356.184 407.162 372.458 346.696 356.767C343.584 355.765 344.888 294.325 343.5 290.5C312.025 286.901 312.552 376.075 316.414 399.087C388.597 447.815 410.82 420.859 457.546 422.032C504.272 423.206 491.256 287.188 490.387 323.133Z" fill="white"/>
</mask>
<g mask="url(#mask6)">
<path d="M480.955 368.608L456.538 353.578L363.648 292.988L344.832 275.555C311.712 313.2 325.225 380.731 354.27 401.817C380.77 421.054 453.351 405.986 480.955 368.608Z" fill="url(#paint1_linear)"/>
<path d="M340.485 346.246C355.815 372.578 388.192 392.75 419.15 395.182C450.107 397.615 477.692 382.172 486.179 357.703C489.148 349.205 489.94 339.791 488.526 330.166C486.073 313.767 476.965 296.996 463.249 283.637C449.533 270.278 431.358 260.539 412.821 256.503C389.057 251.366 365.136 256.049 349.567 268.839C333.999 281.628 327.209 302.266 331.56 323.335C333.139 331.091 336.219 338.85 340.485 346.246Z" fill="#FDD836"/>
<path d="M344.238 280.396C346.617 277.15 349.446 274.201 352.59 271.619C367.234 259.542 390.309 255.045 412.729 259.892C430.242 263.678 447.717 273.044 460.688 285.687C473.626 298.267 482.41 314.391 484.728 329.927C486.068 338.982 485.301 348.02 482.542 356.087C481.04 360.468 478.832 364.641 475.972 368.458C464.045 384.624 442.115 393.569 418.804 391.693C389.361 389.383 358.599 370.295 344.038 345.234C339.933 338.161 337.081 330.853 335.546 323.44C332.266 307.949 335.449 292.279 344.238 280.396Z" fill="#FFEEB3"/>
<path d="M421.025 323.096C436.126 322.519 451.921 322.036 467.022 321.459C469.298 321.356 471.655 322.607 473.051 324.515C475.873 328.562 477.635 333.071 478.008 337.392C478.369 341.431 477.493 345.327 475.59 348.642C474.42 350.678 471.507 351.313 468.76 350.058C452.411 342.621 436.473 333.866 420.809 324.971C419.833 324.405 419.955 323.112 421.025 323.096Z" fill="#E7C636"/>
<path d="M420.332 332.28C419.275 331.804 418.108 331.793 417.353 332.346C415.896 333.302 416.91 335.148 417.898 336.6C426.82 349.728 436.686 363.023 445.778 376.146C447.127 378.146 449.678 379.282 451.932 379.059C457.918 378.382 463.326 376.042 467.17 372.302C470.978 368.663 473.205 363.674 473.56 358.302C473.72 356.136 472.089 353.832 469.621 352.776C453.173 345.736 436.914 339.415 420.332 332.28Z" fill="#E7C636"/>
<path d="M445.243 290.131C436.044 298.317 427.778 307.93 420.47 317.658C419.38 319.152 421.223 321.45 423.298 321.234C438.218 319.56 453.374 317.845 468.293 316.171C469.559 316.048 470.219 314.977 469.854 313.826C466.652 304.151 458.22 294.977 447.907 289.978C446.923 289.47 445.894 289.553 445.243 290.131Z" fill="#E7C636"/>
<path d="M410.043 275.381C410.515 287.459 411.696 300.017 412.382 312.267C412.492 314.425 415.759 315.601 416.892 313.97C423.658 304.123 431.165 294.82 439.463 286.076C440.076 285.438 440.013 284.384 439.378 283.543C436.198 279.504 431.567 276.292 426.541 274.492C421.434 272.613 415.911 272.358 411.293 273.73C410.505 273.935 410.041 274.617 410.043 275.381Z" fill="#E7C636"/>
<path d="M408.94 311.956L405.318 270.826C405.251 269.93 404.512 269.055 403.544 268.663C398.508 266.639 392.905 265.272 388.105 265.84C383.306 266.408 378.572 268.803 375.307 271.739C374.657 272.316 374.639 273.297 375.16 274.163C383.996 287.549 393.919 300.376 404.706 312.799C406.303 314.527 409.153 313.992 408.94 311.956Z" fill="#E7C636"/>
<path d="M401.186 317.351C403.572 318.328 405.288 316.174 403.614 314.298C391.973 301.412 381.002 288.058 370.696 274.401C369.969 273.468 368.742 272.997 367.654 273.231C357.6 275.761 350.112 284.082 349.235 293.736C349.148 294.762 349.89 295.811 350.998 296.302C367.694 303.308 384.49 310.344 401.186 317.351Z" fill="#E7C636"/>
<path d="M412.32 338.404C411.912 352.824 409.581 367.064 407.106 380.934C406.917 382.081 407.848 383.337 409.215 383.683C414.767 385.145 420.353 386.508 425.847 386.587C431.608 386.69 437.686 385.136 441.054 381.585C441.584 381.03 441.634 380.116 441.197 379.331L416.814 338.19C415.595 336.193 412.392 336.348 412.32 338.404Z" fill="#E7C636"/>
<path d="M398.933 381.211C400.05 381.32 400.98 380.721 401.098 379.774L406.968 336.087C407.222 334.144 404.448 332.513 402.873 333.687C391.057 342.27 379.921 351.107 369.809 361.39C369.196 362.027 369.177 363.003 369.763 363.829C376.155 372.735 387.968 380.177 398.933 381.211Z" fill="#E7C636"/>
<path d="M365.702 357.13C377.293 347.676 388.716 338.227 400.289 328.823C401.862 327.526 400.112 324.817 397.837 324.975L350.528 328.36C349.399 328.413 348.66 329.24 348.792 330.267C349.832 339.303 354.949 349.039 362.228 356.607C363.184 357.656 364.78 357.849 365.702 357.13Z" fill="#E7C636"/>
<path d="M396.848 321.377C399.228 321.132 399.064 318.137 396.637 317.257L346.466 298.437C345.337 297.994 344.16 298.314 343.686 299.176C339.92 306.297 339.786 316.099 343.665 324.524C344.17 325.618 345.411 326.372 346.618 326.283C363.343 324.698 380.191 322.927 396.848 321.377Z" fill="#E7C636"/>
<ellipse rx="8.20263" ry="11.2882" transform="matrix(0.642428 -0.765742 0.756057 0.655216 408.237 305.525)" fill="white" fill-opacity="0.5"/>
<ellipse rx="2.30596" ry="3.1734" transform="matrix(0.642428 -0.765742 0.756057 0.655216 445.301 329.443)" fill="white" fill-opacity="0.8"/>
</g>
<g style="mix-blend-mode:color">
<mask id="mask7" mask-type="alpha" maskUnits="userSpaceOnUse" x="312" y="294" width="181" height="134">
<path d="M490.386 322.133C489.587 355.184 407.161 371.458 346.695 355.767C343.583 354.765 346.887 298.325 345.5 294.5C302.22 289.863 312.552 375.075 316.413 398.087C388.597 446.815 410.82 419.859 457.545 421.032C504.271 422.206 491.255 286.188 490.386 322.133Z" fill="white"/>
</mask>
<g mask="url(#mask7)">
<path d="M480.955 368.608L456.537 353.578L363.647 292.988L344.832 275.555C311.711 313.2 325.224 380.731 354.27 401.817C380.769 421.054 453.351 405.986 480.955 368.608Z" fill="#3CB9FF"/>
<path d="M340.485 346.246C355.814 372.578 388.191 392.75 419.149 395.182C450.107 397.615 477.691 382.172 486.178 357.703C489.148 349.205 489.939 339.791 488.525 330.166C486.073 313.767 476.965 296.996 463.249 283.637C449.533 270.278 431.357 260.539 412.82 256.503C389.056 251.366 365.135 256.049 349.567 268.838C333.998 281.628 327.209 302.266 331.56 323.335C333.139 331.091 336.219 338.85 340.485 346.246Z" fill="#3CB9FF"/>
<path d="M344.238 280.396C346.616 277.15 349.446 274.201 352.59 271.619C367.234 259.542 390.308 255.045 412.729 259.892C430.242 263.678 447.717 273.044 460.688 285.687C473.626 298.267 482.41 314.391 484.727 329.927C486.068 338.982 485.301 348.02 482.542 356.087C481.039 360.468 478.831 364.641 475.971 368.458C464.045 384.624 442.114 393.569 418.803 391.693C389.361 389.383 358.599 370.295 344.037 345.234C339.933 338.161 337.081 330.853 335.545 323.44C332.266 307.949 335.449 292.279 344.238 280.396Z" fill="#3CB9FF"/>
<path d="M421.025 323.096C436.125 322.518 451.921 322.036 467.021 321.459C469.298 321.356 471.655 322.607 473.051 324.515C475.873 328.562 477.635 333.071 478.008 337.392C478.369 341.431 477.492 345.327 475.589 348.642C474.42 350.678 471.507 351.313 468.76 350.058C452.41 342.621 436.472 333.866 420.808 324.971C419.833 324.405 419.955 323.112 421.025 323.096Z" fill="#3CB9FF"/>
<path d="M420.331 332.28C419.274 331.804 418.107 331.793 417.352 332.346C415.896 333.302 416.91 335.148 417.898 336.6C426.82 349.728 436.686 363.023 445.777 376.146C447.127 378.146 449.677 379.282 451.932 379.059C457.917 378.382 463.325 376.042 467.17 372.302C470.978 368.663 473.204 363.674 473.56 358.302C473.719 356.136 472.088 353.832 469.621 352.776C453.172 345.736 436.913 339.415 420.331 332.28Z" fill="#3CB9FF"/>
<path d="M445.243 290.131C436.044 298.317 427.778 307.93 420.469 317.658C419.38 319.152 421.222 321.45 423.298 321.234C438.217 319.56 453.373 317.845 468.293 316.171C469.558 316.048 470.219 314.977 469.853 313.826C466.652 304.151 458.22 294.977 447.907 289.978C446.923 289.47 445.894 289.553 445.243 290.131Z" fill="#3CB9FF"/>
<path d="M410.043 275.381C410.515 287.459 411.696 300.017 412.382 312.267C412.491 314.425 415.758 315.601 416.892 313.97C423.657 304.123 431.165 294.82 439.463 286.076C440.076 285.438 440.012 284.384 439.377 283.543C436.197 279.504 431.566 276.292 426.541 274.492C421.433 272.613 415.911 272.358 411.293 273.73C410.504 273.935 410.04 274.617 410.043 275.381Z" fill="#3CB9FF"/>
<path d="M408.939 311.956L405.318 270.826C405.251 269.93 404.511 269.055 403.544 268.663C398.508 266.639 392.905 265.272 388.105 265.84C383.305 266.408 378.572 268.803 375.306 271.739C374.657 272.316 374.638 273.297 375.159 274.163C383.996 287.549 393.918 300.376 404.706 312.799C406.303 314.527 409.153 313.992 408.939 311.956Z" fill="#3CB9FF"/>
<path d="M401.185 317.351C403.571 318.328 405.288 316.174 403.613 314.298C391.973 301.412 381.001 288.058 370.696 274.401C369.968 273.468 368.741 272.997 367.653 273.231C357.6 275.761 350.112 284.082 349.235 293.736C349.147 294.762 349.889 295.811 350.997 296.302C367.693 303.308 384.49 310.344 401.185 317.351Z" fill="#3CB9FF"/>
<path d="M412.319 338.404C411.912 352.824 409.581 367.064 407.106 380.934C406.917 382.081 407.848 383.337 409.215 383.683C414.766 385.145 420.353 386.508 425.846 386.587C431.608 386.69 437.685 385.136 441.053 381.585C441.583 381.03 441.634 380.116 441.197 379.331L416.813 338.19C415.595 336.193 412.392 336.348 412.319 338.404Z" fill="#3CB9FF"/>
<path d="M398.933 381.211C400.05 381.32 400.98 380.721 401.098 379.774L406.968 336.087C407.222 334.144 404.448 332.513 402.873 333.687C391.057 342.27 379.921 351.107 369.809 361.39C369.196 362.027 369.177 363.003 369.763 363.829C376.155 372.735 387.968 380.177 398.933 381.211Z" fill="#3CB9FF"/>
<path d="M365.702 357.13C377.293 347.676 388.715 338.227 400.288 328.823C401.861 327.526 400.112 324.817 397.837 324.975L350.527 328.36C349.399 328.413 348.659 329.24 348.791 330.267C349.832 339.303 354.949 349.039 362.227 356.607C363.184 357.656 364.779 357.849 365.702 357.13Z" fill="#3CB9FF"/>
<path d="M396.847 321.377C399.227 321.132 399.063 318.137 396.637 317.257L346.465 298.437C345.337 297.993 344.16 298.314 343.686 299.176C339.92 306.297 339.785 316.099 343.664 324.524C344.17 325.618 345.411 326.372 346.617 326.283C363.343 324.698 380.19 322.927 396.847 321.377Z" fill="#3CB9FF"/>
<ellipse rx="8.20263" ry="11.2882" transform="matrix(0.642428 -0.765742 0.756057 0.655216 408.236 305.525)" fill="#3CB9FF"/>
<ellipse rx="2.30596" ry="3.1734" transform="matrix(0.642428 -0.765742 0.756057 0.655216 445.301 329.443)" fill="#3CB9FF"/>
</g>
</g>
<g style="mix-blend-mode:darken" opacity="0.7">
<mask id="mask8" mask-type="alpha" maskUnits="userSpaceOnUse" x="314" y="290" width="179" height="139">
<path d="M490.387 323.133C489.588 356.184 407.162 372.458 346.696 356.767C343.584 355.765 344.888 294.325 343.5 290.5C312.025 286.901 312.552 376.075 316.414 399.087C388.597 447.815 410.82 420.859 457.546 422.032C504.272 423.206 491.256 287.188 490.387 323.133Z" fill="white"/>
</mask>
<g mask="url(#mask8)">
<path d="M480.955 368.608L456.538 353.578L363.648 292.988L344.832 275.555C311.712 313.2 325.225 380.731 354.27 401.817C380.77 421.054 453.351 405.986 480.955 368.608Z" fill="url(#paint2_linear)"/>
<path d="M340.485 346.246C355.815 372.578 388.192 392.75 419.15 395.182C450.107 397.615 477.692 382.172 486.179 357.703C489.148 349.205 489.94 339.791 488.526 330.166C486.073 313.767 476.965 296.996 463.249 283.637C449.533 270.278 431.358 260.539 412.821 256.503C389.057 251.366 365.136 256.049 349.567 268.838C333.999 281.628 327.209 302.266 331.56 323.335C333.139 331.091 336.219 338.85 340.485 346.246Z" fill="#FDD836"/>
<path d="M344.238 280.396C346.617 277.15 349.446 274.201 352.59 271.619C367.234 259.542 390.309 255.045 412.729 259.892C430.242 263.678 447.717 273.044 460.688 285.687C473.626 298.267 482.41 314.391 484.728 329.927C486.068 338.982 485.301 348.02 482.542 356.087C481.04 360.468 478.832 364.641 475.972 368.458C464.045 384.624 442.115 393.569 418.804 391.693C389.361 389.383 358.599 370.295 344.038 345.234C339.933 338.161 337.081 330.853 335.546 323.44C332.266 307.949 335.449 292.279 344.238 280.396Z" fill="#FFEEB3"/>
<path d="M421.025 323.096C436.126 322.518 451.921 322.036 467.022 321.459C469.298 321.356 471.655 322.607 473.051 324.515C475.873 328.562 477.635 333.071 478.008 337.392C478.369 341.431 477.493 345.327 475.59 348.642C474.42 350.678 471.507 351.313 468.76 350.058C452.411 342.621 436.473 333.866 420.809 324.971C419.833 324.405 419.955 323.112 421.025 323.096Z" fill="#E7C636"/>
<path d="M420.332 332.28C419.275 331.804 418.108 331.793 417.353 332.346C415.896 333.302 416.91 335.148 417.898 336.6C426.82 349.728 436.686 363.023 445.778 376.146C447.127 378.146 449.678 379.282 451.932 379.059C457.918 378.382 463.326 376.042 467.17 372.302C470.978 368.663 473.205 363.674 473.56 358.302C473.72 356.136 472.089 353.832 469.621 352.776C453.173 345.736 436.914 339.415 420.332 332.28Z" fill="#E7C636"/>
<path d="M445.243 290.131C436.044 298.317 427.778 307.93 420.47 317.658C419.38 319.152 421.223 321.45 423.298 321.234C438.218 319.56 453.374 317.845 468.293 316.171C469.559 316.048 470.219 314.977 469.854 313.826C466.652 304.151 458.22 294.977 447.907 289.978C446.923 289.47 445.894 289.553 445.243 290.131Z" fill="#E7C636"/>
<path d="M410.043 275.381C410.515 287.459 411.696 300.017 412.382 312.267C412.492 314.425 415.759 315.601 416.892 313.97C423.658 304.123 431.165 294.82 439.463 286.076C440.076 285.438 440.013 284.384 439.378 283.543C436.198 279.504 431.567 276.292 426.541 274.492C421.434 272.613 415.911 272.358 411.293 273.73C410.505 273.935 410.041 274.617 410.043 275.381Z" fill="#E7C636"/>
<path d="M408.94 311.956L405.318 270.826C405.251 269.93 404.512 269.055 403.544 268.663C398.508 266.639 392.905 265.272 388.105 265.84C383.306 266.408 378.572 268.803 375.307 271.739C374.657 272.316 374.639 273.297 375.16 274.163C383.996 287.549 393.919 300.376 404.706 312.799C406.303 314.527 409.153 313.992 408.94 311.956Z" fill="#E7C636"/>
<path d="M401.186 317.351C403.572 318.328 405.288 316.174 403.614 314.298C391.973 301.412 381.002 288.058 370.696 274.401C369.969 273.468 368.742 272.997 367.654 273.231C357.6 275.761 350.112 284.082 349.235 293.736C349.148 294.762 349.89 295.811 350.998 296.302C367.694 303.308 384.49 310.344 401.186 317.351Z" fill="#E7C636"/>
<path d="M412.32 338.404C411.912 352.824 409.581 367.064 407.106 380.934C406.917 382.081 407.848 383.337 409.215 383.683C414.767 385.145 420.353 386.508 425.847 386.587C431.608 386.69 437.686 385.136 441.054 381.585C441.584 381.03 441.634 380.116 441.197 379.331L416.814 338.19C415.595 336.193 412.392 336.348 412.32 338.404Z" fill="#E7C636"/>
<path d="M398.933 381.211C400.05 381.32 400.98 380.721 401.098 379.774L406.968 336.087C407.222 334.144 404.448 332.513 402.873 333.687C391.057 342.27 379.921 351.107 369.809 361.39C369.196 362.027 369.177 363.003 369.763 363.829C376.155 372.735 387.968 380.177 398.933 381.211Z" fill="#E7C636"/>
<path d="M365.702 357.13C377.293 347.676 388.716 338.227 400.289 328.823C401.862 327.526 400.112 324.817 397.837 324.975L350.528 328.36C349.399 328.413 348.66 329.24 348.792 330.267C349.832 339.303 354.949 349.039 362.228 356.607C363.184 357.656 364.78 357.849 365.702 357.13Z" fill="#E7C636"/>
<path d="M396.848 321.377C399.228 321.132 399.064 318.137 396.637 317.257L346.466 298.437C345.337 297.993 344.16 298.314 343.686 299.176C339.92 306.297 339.786 316.099 343.665 324.524C344.17 325.618 345.411 326.372 346.618 326.283C363.343 324.698 380.191 322.927 396.848 321.377Z" fill="#E7C636"/>
<ellipse rx="8.20263" ry="11.2882" transform="matrix(0.642428 -0.765742 0.756057 0.655216 408.237 305.525)" fill="white" fill-opacity="0.5"/>
<ellipse rx="2.30596" ry="3.1734" transform="matrix(0.642428 -0.765742 0.756057 0.655216 445.301 329.443)" fill="white" fill-opacity="0.8"/>
</g>
</g>
<mask id="mask9" mask-type="alpha" maskUnits="userSpaceOnUse" x="318" y="250" width="181" height="116">
<path d="M498.341 323.057C497.627 356.11 423.5 366.94 360 365.5C339 356.94 326 338 326 330.5C311.5 325 321.981 316.791 322.758 280.844C323.535 244.896 362.009 249.974 409.5 251C456.992 252.026 499.118 287.109 498.341 323.057Z" fill="white"/>
</mask>
<g mask="url(#mask9)">
<path d="M484.423 366.501L459.563 351.549L364.977 291.252L345.803 273.879C312.253 311.629 326.186 379.117 355.768 400.11C382.757 419.264 456.479 403.967 484.423 366.501Z" fill="url(#paint3_linear)"/>
<path d="M341.605 344.609C357.267 370.89 390.236 390.955 421.707 393.285C453.178 395.616 481.164 380.081 489.713 355.585C492.704 347.076 493.479 337.66 492.011 328.039C489.467 311.648 480.158 294.908 466.176 281.594C452.194 268.281 433.692 258.601 414.84 254.627C390.672 249.569 366.375 254.331 350.592 267.172C334.81 280.013 327.974 300.673 332.462 321.728C334.091 329.478 337.246 337.227 341.605 344.609Z" fill="#FDD836"/>
<path d="M345.213 278.722C347.621 275.468 350.488 272.51 353.676 269.918C368.523 257.795 391.961 253.225 414.762 258.002C432.572 261.732 450.36 271.043 463.58 283.645C476.766 296.184 485.741 312.281 488.142 327.81C489.532 336.86 488.779 345.9 485.999 353.976C484.484 358.361 482.253 362.542 479.358 366.368C467.284 382.571 445.022 391.585 421.325 389.783C391.395 387.565 360.075 368.575 345.201 343.56C341.009 336.5 338.088 329.201 336.506 321.793C333.128 306.313 336.316 290.632 345.213 278.722Z" fill="#FFEEB3"/>
<path d="M423.38 321.179C438.726 320.554 454.777 320.021 470.123 319.397C472.436 319.287 474.835 320.53 476.259 322.434C479.139 326.472 480.944 330.976 481.336 335.295C481.714 339.333 480.835 343.232 478.911 346.553C477.728 348.593 474.77 349.237 471.974 347.99C455.336 340.605 439.112 331.901 423.166 323.054C422.172 322.492 422.293 321.198 423.38 321.179Z" fill="#E7C636"/>
<path d="M422.703 330.365C421.627 329.893 420.441 329.886 419.675 330.441C418.198 331.401 419.234 333.244 420.242 334.692C429.348 347.793 439.415 361.057 448.694 374.151C450.071 376.147 452.666 377.274 454.957 377.044C461.039 376.348 466.528 373.991 470.424 370.239C474.284 366.588 476.532 361.592 476.877 356.219C477.033 354.053 475.368 351.754 472.857 350.706C456.12 343.717 439.576 337.448 422.703 330.365Z" fill="#E7C636"/>
<path d="M447.896 288.138C438.571 296.353 430.198 305.991 422.799 315.743C421.696 317.24 423.575 319.533 425.684 319.31C440.842 317.589 456.241 315.826 471.399 314.105C472.684 313.978 473.352 312.905 472.977 311.755C469.695 302.09 461.099 292.943 450.602 287.976C449.601 287.471 448.555 287.558 447.896 288.138Z" fill="#E7C636"/>
<path d="M412.078 273.498C412.593 285.575 413.831 298.13 414.564 310.377C414.682 312.535 418.006 313.701 419.153 312.067C426 302.198 433.602 292.871 442.01 284.101C442.631 283.461 442.563 282.407 441.915 281.568C438.672 277.539 433.956 274.342 428.843 272.558C423.646 270.695 418.033 270.457 413.344 271.844C412.543 272.051 412.073 272.735 412.078 273.498Z" fill="#E7C636"/>
<path d="M411.065 310.077L407.262 268.959C407.191 268.063 406.437 267.191 405.453 266.801C400.329 264.794 394.63 263.444 389.754 264.027C384.877 264.61 380.074 267.021 376.764 269.966C376.105 270.546 376.089 271.527 376.622 272.391C385.642 285.749 395.764 298.545 406.764 310.934C408.393 312.657 411.288 312.112 411.065 310.077Z" fill="#E7C636"/>
<path d="M403.201 315.496C405.628 316.466 407.366 314.307 405.659 312.436C393.79 299.587 382.6 286.268 372.086 272.643C371.344 271.712 370.096 271.245 368.991 271.483C358.781 274.044 351.195 282.389 350.332 292.046C350.246 293.072 351.003 294.118 352.131 294.606C369.12 301.56 386.212 308.543 403.201 315.496Z" fill="#E7C636"/>
<path d="M414.578 336.515C414.206 350.936 411.879 365.183 409.405 379.061C409.216 380.208 410.166 381.462 411.557 381.804C417.203 383.248 422.885 384.594 428.468 384.655C434.324 384.739 440.496 383.166 443.908 379.605C444.445 379.048 444.494 378.133 444.047 377.351L419.145 336.286C417.9 334.293 414.646 334.458 414.578 336.515Z" fill="#E7C636"/>
<path d="M401.099 379.364C402.235 379.47 403.178 378.867 403.295 377.92L409.132 334.214C409.384 332.271 406.56 330.649 404.963 331.828C392.98 340.448 381.688 349.32 371.441 359.634C370.82 360.274 370.804 361.25 371.401 362.074C377.924 370.96 389.951 378.364 401.099 379.364Z" fill="#E7C636"/>
<path d="M367.254 355.388C379.007 345.897 390.588 336.412 402.322 326.971C403.917 325.67 402.131 322.967 399.819 323.131L351.747 326.665C350.6 326.723 349.851 327.552 349.989 328.578C351.073 337.611 356.302 347.33 363.722 354.876C364.697 355.921 366.319 356.109 367.254 355.388Z" fill="#E7C636"/>
<path d="M398.803 319.537C401.221 319.284 401.045 316.29 398.576 315.417L347.53 296.755C346.382 296.316 345.187 296.64 344.707 297.503C340.901 304.636 340.794 314.439 344.761 322.852C345.278 323.944 346.541 324.694 347.767 324.601C364.761 322.963 381.878 321.139 398.803 319.537Z" fill="#E7C636"/>
<ellipse cx="410.331" cy="303.648" rx="8.25501" ry="11.3983" transform="rotate(-49.7201 410.331 303.648)" fill="white" fill-opacity="0.5"/>
<ellipse cx="448.07" cy="327.449" rx="2.32069" ry="3.20435" transform="rotate(-49.7201 448.07 327.449)" fill="white" fill-opacity="0.8"/>
</g>
<mask id="mask10" mask-type="alpha" maskUnits="userSpaceOnUse" x="454" y="341" width="134" height="120">
<path d="M588 342C588 338.888 574.096 489.201 583.8 455.995C596.488 412.579 459.056 455.995 455.3 455.995C448.673 455.995 553.5 342.5 557.5 345C558 344.5 561.291 341.497 561.5 342C561.859 342.863 559.368 345.868 560 346.5C567.7 348.209 588 349.18 588 342Z" fill="#C4C4C4"/>
</mask>
<g mask="url(#mask10)">
<path d="M528.8 424.808L627.3 195.808C627.3 195.808 624.299 189.808 629.299 185.308C634.299 180.808 639.8 183.308 639.8 183.308L706.3 166.808" stroke="#8058D1" stroke-width="10" stroke-linecap="round" stroke-linejoin="round"/>
<path d="M531.799 424.808L630.299 195.808C630.299 195.808 628.299 190.308 631.299 186.808C634.299 183.308 640.299 185.808 640.299 185.808L707.799 168.808" stroke="url(#paint4_linear)" stroke-width="5" stroke-linecap="round" stroke-linejoin="round"/>
</g>
<mask id="mask11" mask-type="alpha" maskUnits="userSpaceOnUse" x="556" y="157" width="191" height="192">
<path d="M576 334.796C576 331.685 736.296 209.502 746 176.296C758.687 132.88 621.255 176.296 617.5 176.296C610.872 176.296 558.499 313.82 558.499 321C558.499 328.18 551 345.25 564 348.5C571.999 350.5 576 341.976 576 334.796Z" fill="#C4C4C4"/>
</mask>
<g mask="url(#mask11)">
<path d="M530.5 425.313L629 196.313C629 196.313 626 190.313 631 185.813C636 181.313 641.5 183.813 641.5 183.813L708 167.313" stroke="url(#paint5_linear)" stroke-width="10" stroke-linecap="round" stroke-linejoin="round"/>
<path d="M533.5 425.313L632 196.313C632 196.313 629.999 190.813 632.999 187.313C635.999 183.813 641.999 186.313 641.999 186.313L709.5 169.313" stroke="url(#paint6_linear)" stroke-width="5" stroke-linecap="round" stroke-linejoin="round"/>
<path opacity="0.2" d="M633 195.813L624.5 196.313M641 187.813L641.5 179.313M634 188.313L628 182.813M632.5 191.313L624.5 189.313M637 187.313L635 179.313" stroke="#223037" stroke-width="2" stroke-linecap="round"/>
</g>
<defs>
<filter id="filter0_f" x="27" y="217" width="691" height="446" filterUnits="userSpaceOnUse" color-interpolation-filters="sRGB">
<feFlood flood-opacity="0" result="BackgroundImageFix"/>
<feBlend mode="normal" in="SourceGraphic" in2="BackgroundImageFix" result="shape"/>
<feGaussianBlur stdDeviation="30" result="effect1_foregroundBlur"/>
</filter>
<linearGradient id="paint0_linear" x1="491.5" y1="208" x2="-144.5" y2="675" gradientUnits="userSpaceOnUse">
<stop/>
<stop offset="1" stop-opacity="0"/>
</linearGradient>
<linearGradient id="paint1_linear" x1="351.504" y1="355.434" x2="330.389" y2="361.646" gradientUnits="userSpaceOnUse">
<stop stop-color="#FEF000"/>
<stop offset="1" stop-color="#FEC116"/>
</linearGradient>
<linearGradient id="paint2_linear" x1="351.504" y1="355.434" x2="330.389" y2="361.646" gradientUnits="userSpaceOnUse">
<stop stop-color="#FEF000"/>
<stop offset="1" stop-color="#FEC116"/>
</linearGradient>
<linearGradient id="paint3_linear" x1="336.501" y1="306" x2="340.089" y2="364.495" gradientUnits="userSpaceOnUse">
<stop stop-color="#FEF000"/>
<stop offset="1" stop-color="#FEC116"/>
</linearGradient>
<linearGradient id="paint4_linear" x1="599.799" y1="264.808" x2="693.299" y2="170.308" gradientUnits="userSpaceOnUse">
<stop stop-color="#8772DB"/>
<stop offset="1" stop-color="#E782D6"/>
</linearGradient>
<linearGradient id="paint5_linear" x1="598.5" y1="265.313" x2="692" y2="170.813" gradientUnits="userSpaceOnUse">
<stop stop-color="#E220C3"/>
<stop offset="1" stop-color="#FF42E1"/>
</linearGradient>
<linearGradient id="paint6_linear" x1="601.5" y1="265.313" x2="695" y2="170.813" gradientUnits="userSpaceOnUse">
<stop stop-color="#F362DC"/>
<stop offset="1" stop-color="#E782D6"/>
</linearGradient>
</defs>
</svg>
